<?xml version="1.0" encoding="iso-8859-1"?>
<!-- Generator: Adobe Illustrator 16.0.0, SVG Export Plug-In . SVG Version: 6.00 Build 0)  -->
<!DOCTYPE svg PUBLIC "-//W3C//DTD SVG 1.1//EN" "http://www.w3.org/Graphics/SVG/1.1/DTD/svg11.dtd">
<svg version="1.1" id="Capa_1" xmlns="http://www.w3.org/2000/svg" xmlns:xlink="http://www.w3.org/1999/xlink" x="0px" y="0px"
	 width="612.675px" height="612.675px" viewBox="0 0 612.675 612.675" style="enable-background:new 0 0 612.675 612.675;"
	 xml:space="preserve">
<g>
	<g id="_x34__20_">
		<g>
			<path d="M581.209,223.007L269.839,530.92c-51.592,51.024-135.247,51.024-186.839,0c-51.592-51.023-51.592-133.737,0-184.761
				L363.248,69.04c34.402-34.009,90.15-34.009,124.553,0c34.402,34.008,34.402,89.166,0,123.174l-280.249,277.12
				c-17.19,17.016-45.075,17.016-62.287,0c-17.19-16.993-17.19-44.571,0-61.587L394.37,161.42l-31.144-30.793L114.144,376.975
				c-34.402,34.009-34.402,89.166,0,123.174c34.402,34.009,90.15,34.009,124.552,0l280.249-277.12
				c51.592-51.023,51.592-133.737,0-184.761c-51.593-51.023-135.247-51.023-186.839,0L36.285,330.784l1.072,1.071
				c-53.736,68.323-49.012,167.091,14.5,229.88c63.512,62.79,163.35,67.492,232.46,14.325l1.072,1.072l326.942-323.31
				L581.209,223.007z"/>
		</g>
	</g>
</g>
<g>
</g>
<g>
</g>
<g>
</g>
<g>
</g>
<g>
</g>
<g>
</g>
<g>
</g>
<g>
</g>
<g>
</g>
<g>
</g>
<g>
</g>
<g>
</g>
<g>
</g>
<g>
</g>
<g>
</g>
</svg>
