<?xml version="1.0" encoding="iso-8859-1"?>
<!-- Generator: Adobe Illustrator 16.0.0, SVG Export Plug-In . SVG Version: 6.00 Build 0)  -->
<!DOCTYPE svg PUBLIC "-//W3C//DTD SVG 1.1//EN" "http://www.w3.org/Graphics/SVG/1.1/DTD/svg11.dtd">
<svg version="1.1" id="Capa_1" xmlns="http://www.w3.org/2000/svg" xmlns:xlink="http://www.w3.org/1999/xlink" x="0px" y="0px"
	 width="492.892px" height="492.892px" viewBox="0 0 492.892 492.892" style="enable-background:new 0 0 492.892 492.892;"
	 xml:space="preserve">
<g>
	<g>
		<path d="M232.855,19.773c2.552-5.17,7.817-8.443,13.583-8.443c5.766-0.001,11.032,3.272,13.584,8.442l59.083,119.697
			c5.556,11.255,16.294,19.058,28.716,20.862l132.1,19.203c5.706,0.83,10.446,4.826,12.229,10.31
			c1.78,5.483,0.296,11.503-3.833,15.528l-95.581,93.181c-8.988,8.763-13.089,21.386-10.969,33.756l22.553,131.547
			c0.974,5.683-1.362,11.426-6.027,14.812c-4.664,3.391-10.848,3.836-15.951,1.153l-118.156-62.106
			c-11.11-5.84-24.383-5.84-35.495,0.002L110.546,479.82c-5.104,2.683-11.288,2.234-15.952-1.154c-4.665-3.389-7-9.133-6.026-14.814
			l22.563-131.537c2.123-12.374-1.979-24.999-10.969-33.764L4.575,205.373c-4.128-4.025-5.615-10.045-3.833-15.528
			c1.782-5.483,6.522-9.479,12.228-10.31l132.096-19.202c12.422-1.806,23.161-9.608,28.717-20.865L232.855,19.773z"/>
	</g>
</g>
<g>
</g>
<g>
</g>
<g>
</g>
<g>
</g>
<g>
</g>
<g>
</g>
<g>
</g>
<g>
</g>
<g>
</g>
<g>
</g>
<g>
</g>
<g>
</g>
<g>
</g>
<g>
</g>
<g>
</g>
</svg>
