<svg height="512" viewBox="0 0 16 16" width="512" xmlns="http://www.w3.org/2000/svg"><path d="m3.5 0h-3c-.276367 0-.5.223633-.5.5v9c0 .276367.223633.5.5.5h3c.276367 0 .5-.223633.5-.5v-9c0-.276367-.223633-.5-.5-.5zm-.5 9h-2v-8h2z" transform="translate(0 5)"/><path d="m9.15332 5.02979h-2.9541c-.258301 0-.387695-.172363-.431152-.246582-.043457-.0737305-.131348-.270508-.0063477-.496094l1.0415-1.87549c.228516-.410645.251953-.893555.0649414-1.32471-.187012-.43164-.556152-.744629-1.0127-.858398l-.734375-.183594c-.178711-.0449219-.368164.0122071-.492676.150391l-3.9873 4.42969c-.413574.460449-.641113 1.0542-.641113 1.67236v4.23242c0 1.37842 1.12158 2.5 2.5 2.5l4.97412-.0004883c1.12305 0 2.11475-.756348 2.41113-1.83887l1.06738-3.89844c.03125-.13623.0473633-.275879.0473633-.415527 0-1.01807-.828613-1.84668-1.84668-1.84668zm.82959 2.01709-1.0625 3.87939c-.177734.649414-.772461 1.10352-1.44629 1.10352h-4.97412c-.827148 0-1.5-.672852-1.5-1.5v-4.23242c0-.371094.136719-.727539.384766-1.00342l3.78564-4.20605.442383.110352c.152344.0380859.275391.142578.337891.286621.0625.143555.0546875.304199-.0214844.441406l-1.0415 1.87549c-.260742.469238-.253906 1.02588.0185547 1.48877.272461.462891.755859.739258 1.29297.739258h2.9541c.466797 0 .84668.379883.84668.84668 0 .0634766-.0073242.127441-.0170898.17041z" transform="translate(5 .97)"/></svg>