<?xml version="1.0" encoding="iso-8859-1"?>
<!-- Generator: Adobe Illustrator 19.0.0, SVG Export Plug-In . SVG Version: 6.00 Build 0)  -->
<svg version="1.1" id="Capa_1" xmlns="http://www.w3.org/2000/svg" xmlns:xlink="http://www.w3.org/1999/xlink" x="0px" y="0px"
	 viewBox="0 0 477.867 477.867" style="enable-background:new 0 0 477.867 477.867;" xml:space="preserve">
<g>
	<g>
		<path d="M238.933,0C106.974,0,0,106.974,0,238.933s106.974,238.933,238.933,238.933s238.933-106.974,238.933-238.933
			C477.726,107.033,370.834,0.141,238.933,0z M238.933,443.733c-113.108,0-204.8-91.692-204.8-204.8s91.692-204.8,204.8-204.8
			s204.8,91.692,204.8,204.8C443.611,351.991,351.991,443.611,238.933,443.733z"/>
	</g>
</g>
<g>
	<g>
		<circle cx="153.6" cy="204.8" r="34.133"/>
	</g>
</g>
<g>
	<g>
		<circle cx="324.267" cy="204.8" r="34.133"/>
	</g>
</g>
<g>
	<g>
		<path d="M304.287,296.61c-5.637-7.554-16.331-9.108-23.885-3.47c-0.327,0.244-0.644,0.499-0.953,0.766h0
			c-24.135,17.628-56.898,17.628-81.033,0c-7.131-6.164-17.909-5.379-24.072,1.752c-6.164,7.131-5.379,17.909,1.752,24.072
			c0.308,0.267,0.626,0.522,0.953,0.766c36.531,27.922,87.236,27.922,123.767,0C308.371,314.858,309.925,304.164,304.287,296.61z"/>
	</g>
</g>
<g>
</g>
<g>
</g>
<g>
</g>
<g>
</g>
<g>
</g>
<g>
</g>
<g>
</g>
<g>
</g>
<g>
</g>
<g>
</g>
<g>
</g>
<g>
</g>
<g>
</g>
<g>
</g>
<g>
</g>
</svg>
