<svg width="285" height="68" viewBox="0 0 285 68" fill="none" xmlns="http://www.w3.org/2000/svg">
<path d="M0 43.5432C9.5906 39.5432 32.3637 38.6667 57.5436 46.5432C91.1107 57.0432 100.819 35.0432 118.801 19.5432C118.801 19.5432 141.478 24.0432 160.659 24.0432C167.279 24.0432 196.635 53.5432 206.825 23.0432C213.419 23.0432 210.209 15.0432 221.598 14.5432C232.987 14.0432 249.282 16.0431 248.683 8.04309C248.083 0.0430937 263.131 6.04305 273.92 8.04305C280.529 9.26807 283.466 10.7667 284.122 9.75624V8.04317C284.309 8.90251 284.322 9.44693 284.122 9.75624V67.5432H0V43.5432Z" fill="url(#paint0_linear)"/>
<path d="M0 42.7249C8.99119 42.7249 37.159 37.3486 62.3389 45.225C95.906 55.7251 113.877 10.0432 128.65 17.0432C128.65 17.0432 148.58 22.1442 156.965 24.0432C175.432 28.225 185.896 43.5432 198.207 30.5432C212.981 19.0432 205.594 15.0432 220.367 13.0432C225.762 13.0432 231.712 15.5432 236.987 15.5432C243.581 15.5432 245.296 6.04315 256.685 5.54315C268.074 5.04315 275.767 8.54308 285 8.54309" stroke="url(#paint1_radial)" stroke-width="10"/>
<defs>
<linearGradient id="paint0_linear" x1="142.192" y1="-23.9569" x2="142.192" y2="67.5431" gradientUnits="userSpaceOnUse">
<stop stop-color="#525558"/>
<stop offset="1" stop-color="#3B3F43" stop-opacity="0"/>
</linearGradient>
<radialGradient id="paint1_radial" cx="0" cy="0" r="1" gradientUnits="userSpaceOnUse" gradientTransform="translate(141.761 14.1711) rotate(-2.27692) scale(149.672 445.953)">
<stop stop-color="#01A4F6"/>
<stop offset="1" stop-color="#2F3438"/>
</radialGradient>
</defs>
</svg>
