<svg id="_x33_0" enable-background="new 0 0 64 64" height="512" viewBox="0 0 64 64" width="512" xmlns="http://www.w3.org/2000/svg"><g><circle cx="48" cy="24" r="1"/><path d="m48 49c-1.654 0-3 1.346-3 3s1.346 3 3 3 3-1.346 3-3-1.346-3-3-3zm0 4c-.551 0-1-.449-1-1s.449-1 1-1 1 .449 1 1-.449 1-1 1z"/><path d="m52.953 23.539c-.102-1.089-.544-2.072-1.232-2.846l4.279-4.279c.645-.645 1-1.502 1-2.414 0-.713-.223-1.389-.626-1.96l1.626-1.626c.378.378.88.586 1.414.586 1.978 0 3.586-1.608 3.586-3.586 0-.534-.208-1.036-.586-1.414l-4.414-4.414c-.378-.378-.88-.586-1.414-.586-1.978 0-3.586 1.608-3.586 3.586 0 .534.208 1.036.586 1.414l-1.63 1.63c-.893-.61-2.053-.742-3.071-.408-.345-1.276-1.501-2.222-2.885-2.222-1.654 0-3 1.346-3 3 0 1.238.754 2.302 1.826 2.76l-8.066 8.066c-.458-1.072-1.522-1.826-2.76-1.826-.023 0-.045.006-.068.007 2.322-1.998 3.068-5.05 3.068-7.007v-1h-1c-4.572 0-7.367 1.573-9 3.546v-2.546c0-3.343-2.317-9-11-9h-1v1c0 3.113 1.881 9 9 9h1v7 .546c-1.277-1.543-3.269-2.835-6.265-3.326.167-.374.265-.785.265-1.22 0-1.654-1.346-3-3-3s-3 1.346-3 3c0 1.319.861 2.429 2.046 2.83.307 3.222 2.424 8.17 8.954 8.17h1v6h-4c-1.103 0-2 .897-2 2v2c0 1.103.897 2 2 2v2h-6v-2c1.103 0 2-.897 2-2v-2c0-1.103-.897-2-2-2h-10c-1.103 0-2 .897-2 2v2c0 1.103.897 2 2 2v2h-1c-1.654 0-3 1.346-3 3v21h2v-21c0-.551.449-1 1-1h1v13c0 2.757 2.243 5 5 5s5-2.243 5-5v-13h6v13c0 2.757 2.243 5 5 5 .346 0 .684-.036 1.01-.103-.001.035-.01.068-.01.103v2c0 1.103.897 2 2 2h28c1.103 0 2-.897 2-2 0-.841-.264-1.62-.709-2.265l1.593-2.867c2.038-3.67 3.116-7.828 3.116-12.025 0-6.614-2.576-12.833-7.253-17.51zm-28.953-14.539c-5.318 0-6.596-4.01-6.903-5.964 5.18.351 7.407 3.193 7.828 5.964zm-19 24h10l.001 2h-10.001zm2 4h6v2h-6zm6 17c0 1.654-1.346 3-3 3s-3-1.346-3-3v-13h6zm35-27c-1.654 0-3-1.346-3-3s1.346-3 3-3 3 1.346 3 3-1.346 3-3 3zm8.586-24 4.414 4.414c0 .875-.711 1.586-1.586 1.586l-4.414-4.414c0-.875.711-1.586 1.586-1.586zm-1.586 4.414 1.586 1.586-1.586 1.586-1.586-1.586zm-4 2 3.586 3.586c.263.263.414.628.414 1s-.151.737-.414 1l-4.481 4.481c-.642-.301-1.351-.481-2.105-.481-2.757 0-5 2.243-5 5 0 .754.18 1.463.481 2.105l-2.481 2.481-5.586-5.586 13.586-13.586c.526-.526 1.474-.526 2 0zm-17.586 15.586.586-.586 5.586 5.586-.586.586c-.526.526-1.474.526-2 0l-3.586-3.586c-.263-.263-.414-.628-.414-1s.151-.737.414-1zm12.586-18c.551 0 1 .449 1 1s-.449 1-1 1-1-.449-1-1 .449-1 1-1zm-11 13c0 .551-.449 1-1 1s-1-.449-1-1 .449-1 1-1 1 .449 1 1zm-.097-8.964c-.307 1.956-1.586 5.964-6.903 5.964h-.924c.421-2.771 2.647-5.613 7.827-5.964zm-18.903 1.964c.551 0 1 .449 1 1s-.449 1-1 1-1-.449-1-1 .449-1 1-1zm8 10c-5.318 0-6.596-4.01-6.903-5.964 5.18.351 7.407 3.193 7.828 5.964zm3 2v-1-5h1c1.324 0 2.465-.205 3.448-.556-.279.455-.448.984-.448 1.556 0 1.238.754 2.302 1.826 2.76l-.826.826c-.645.645-1 1.502-1 2.414s.355 1.77 1 2.414l3.586 3.586c.645.645 1.502 1 2.414 1s1.77-.355 2.414-1l4.279-4.279c.884.786 2.034 1.279 3.307 1.279.302 0 .594-.038.881-.089l.407.305c3.577 2.683 5.712 6.953 5.712 11.424 0 2.386-.597 4.7-1.721 6.778-1.112-1.28-2.678-2.152-4.447-2.363-.398-1.19-1.51-2.055-2.832-2.055h-15v-2h4v-2h-4v-2c1.103 0 2-.897 2-2v-2c0-1.103-.897-2-2-2h-4zm21 32c-2.757 0-5-2.243-5-5s2.243-5 5-5 5 2.243 5 5-2.243 5-5 5zm-4.89-10h-12.11v-2h15c.192 0 .361.069.513.163-1.307.284-2.479.933-3.403 1.837zm-12.11 7v-5h10.685c-.435.911-.685 1.925-.685 3 0 1.958.81 3.728 2.11 5h-13.136c.635-.838 1.026-1.87 1.026-3zm-10-21h10l.001 2h-10.001zm2 4h6v2h-6zm0 17v-13h6v13c0 1.654-1.346 3-3 3s-3-1.346-3-3zm6 7v-2h26c1.103 0 2 .897 2.001 2zm29.136-6.104-1.398 2.517c-.528-.256-1.113-.413-1.738-.413h-2.11c1.3-1.272 2.11-3.042 2.11-5 0-.943-.19-1.843-.53-2.665 1.65-2.607 2.53-5.597 2.53-8.695 0-4.891-2.246-9.568-6.03-12.641.695-.518 1.259-1.202 1.61-2.006l1.753 1.753c4.299 4.3 6.667 10.017 6.667 16.097 0 3.858-.991 7.68-2.864 11.053z"/><path d="m30 7c1.654 0 3-1.346 3-3s-1.346-3-3-3-3 1.346-3 3 1.346 3 3 3zm0-4c.551 0 1 .449 1 1s-.449 1-1 1-1-.449-1-1 .449-1 1-1z"/><path d="m14 29c1.654 0 3-1.346 3-3s-1.346-3-3-3-3 1.346-3 3 1.346 3 3 3zm0-4c.551 0 1 .449 1 1s-.449 1-1 1-1-.449-1-1 .449-1 1-1z"/><path d="m5 11c2.206 0 4-1.794 4-4s-1.794-4-4-4-4 1.794-4 4 1.794 4 4 4zm0-6c1.103 0 2 .897 2 2s-.897 2-2 2-2-.897-2-2 .897-2 2-2z"/><path d="m3 21c0 2.206 1.794 4 4 4s4-1.794 4-4-1.794-4-4-4-4 1.794-4 4zm6 0c0 1.103-.897 2-2 2s-2-.897-2-2 .897-2 2-2 2 .897 2 2z"/></g></svg>