<?xml version="1.0"?>
<svg xmlns="http://www.w3.org/2000/svg" width="512" height="512" viewBox="0 0 128 128"><g><path d="M30.624,37.833a1.751,1.751,0,0,0,1.75-1.75V29.5a1.75,1.75,0,0,0-3.5,0v6.583A1.75,1.75,0,0,0,30.624,37.833Z"/><path d="M60.365,80.737a1.749,1.749,0,0,0-1.7-1.317H14.57a1.748,1.748,0,0,0-1.7,1.317,24.274,24.274,0,0,0-.755,6.013,24.5,24.5,0,1,0,48.245-6.013ZM36.62,107.75a21.024,21.024,0,0,1-21-21,20.8,20.8,0,0,1,.355-3.83H57.266A20.991,20.991,0,0,1,36.62,107.75Z"/><path d="M121.5,113.75h-6.562V109.5a1.75,1.75,0,0,0-1.75-1.75H111.94V31.942h7.186a1.75,1.75,0,0,0,1.75-1.75v-6a1.751,1.751,0,0,0-1.75-1.75H111.94V15.19a1.751,1.751,0,0,0-1.75-1.75h-6a1.751,1.751,0,0,0-1.75,1.75v7.252H94.88V14.224a4.74,4.74,0,0,0-.254-9.474h-21a4.74,4.74,0,0,0-.246,9.475v8.217H70.626a1.751,1.751,0,0,0-1.75,1.75v6a1.75,1.75,0,0,0,1.75,1.75H73.38V77.12a10.744,10.744,0,0,0,18.344,7.6,10.641,10.641,0,0,0,3.156-7.6V31.942h7.56V107.75h-1.252a1.751,1.751,0,0,0-1.75,1.75v4.25H50.783a30.485,30.485,0,0,0-.413-54.219V53.783c0-.012,0-.022,0-.034s0-.022,0-.034V47.033c0-.012,0-.022,0-.034s0-.022,0-.034V40.283c0-.012,0-.022,0-.034s0-.022,0-.034V33.533c0-.012,0-.022,0-.034s0-.022,0-.034V26.783c0-.012,0-.022,0-.034s0-.022,0-.034V21a4.74,4.74,0,0,0-.246-9.475h-27A4.741,4.741,0,0,0,22.87,21V59.531a30.485,30.485,0,0,0-.412,54.219H6.5a1.751,1.751,0,0,0-1.75,1.75v6a1.751,1.751,0,0,0,1.75,1.75h115a1.751,1.751,0,0,0,1.75-1.75v-6A1.751,1.751,0,0,0,121.5,113.75ZM105.94,16.94h2.5v5.5h-2.5ZM72.376,9.5a1.252,1.252,0,0,1,1.25-1.25h21a1.25,1.25,0,0,1,0,2.5h-21A1.252,1.252,0,0,1,72.376,9.5Zm4.5,4.75h14.5v8.192H76.88Zm-4.5,11.692h45v2.5h-45Zm19,9.25H87.126a1.75,1.75,0,0,0,0,3.5H91.38v3.25H87.126a1.75,1.75,0,0,0,0,3.5H91.38v3.25H87.126a1.75,1.75,0,0,0,0,3.5H91.38v3.25H87.126a1.75,1.75,0,0,0,0,3.5H91.38v3.25H87.126a1.75,1.75,0,0,0,0,3.5H91.38V77.12a7.264,7.264,0,0,1-7.25,7.25,7.258,7.258,0,0,1-7.25-7.25V31.942h14.5Zm14.56-3.25h2.5V107.75h-2.5Zm-3,79.308h8.5v2.5h-8.5ZM21.874,16.275a1.251,1.251,0,0,1,1.25-1.25h27a1.25,1.25,0,1,1,0,2.5h-27A1.25,1.25,0,0,1,21.874,16.275ZM9.62,86.75A27.073,27.073,0,0,1,25.351,62.22a1.75,1.75,0,0,0,1.019-1.59V21.025h20.5V25H42.624a1.75,1.75,0,0,0,0,3.5H46.87v3.25H42.624a1.75,1.75,0,1,0,0,3.5H46.87V38.5H42.624a1.75,1.75,0,0,0,0,3.5H46.87v3.25H42.624a1.75,1.75,0,0,0,0,3.5H46.87V52H42.624a1.75,1.75,0,0,0,0,3.5H46.87V60.63a1.75,1.75,0,0,0,1.02,1.59A27,27,0,1,1,9.62,86.75Zm110.13,33H8.25v-2.5h111.5Z"/><path d="M32.137,89.792a4.75,4.75,0,1,0,4.75,4.75A4.755,4.755,0,0,0,32.137,89.792Zm0,6a1.25,1.25,0,1,1,1.25-1.25A1.251,1.251,0,0,1,32.137,95.792Z"/><path d="M48.624,83.917a4.75,4.75,0,1,0,4.75,4.75A4.754,4.754,0,0,0,48.624,83.917Zm0,6a1.25,1.25,0,1,1,1.25-1.25A1.251,1.251,0,0,1,48.624,89.917Z"/><path d="M30.387,67.388a4.75,4.75,0,1,0,4.75-4.75A4.756,4.756,0,0,0,30.387,67.388Zm4.75-1.25a1.25,1.25,0,1,1-1.25,1.25A1.251,1.251,0,0,1,35.137,66.138Z"/></g></svg>
