<svg id="_x33_0" enable-background="new 0 0 64 64" height="512" viewBox="0 0 64 64" width="512" xmlns="http://www.w3.org/2000/svg"><g><path d="m54.46 1.209c-3.46-.583-6.783.073-9.291 1.791h-33.169c-1.654 0-3 1.346-3 3v28.586l-8-8v36.414h36.414l-6-6h16.976l1.318 3.426c.362.941 1.283 1.574 2.292 1.574s1.93-.633 2.293-1.574l4.707-12.24v-26.186c0-2.123.809-3.282 1.745-4.625 1.018-1.458 2.171-3.11 2.251-6.049.135-5.005-3.455-9.26-8.536-10.117zm-42.46 3.791h31.017c-1.308 1.668-2.017 3.738-2.017 6 0 3.145 1.197 4.86 2.255 6.375.38.545.736 1.063 1.029 1.625h-33.284v-13c0-.552.448-1 1-1zm-3 50v-8.586l8.586 8.586zm8 2v4h-2v-2h-2v2h-2v-4zm6 4v-2h-2v2h-2v-4h3.414l-15.414-15.414v15.414h2v4h-2v-2h-2v2h-2v-29.586l29.586 29.586zm6.414-6-6-6h3.586v-2h-5.586l-2-2h7.586v-2h-9.586l-2-2h3.586v-2h-5.586l-2.414-2.414v-15.586h33.925c.044.312.075.638.075 1v26.186l2.621 6.814zm17.586-32h10v2h-10zm4-12h2v10h-2zm-3.544 38h9.088l-1.538 4h-6.011zm5.544-2v-20h4v20zm-6-20h4v20h-4zm5.427 32.707c-.139.355-.716.355-.853 0l-1.81-4.707h4.473zm6.678-43.477c-.861 1.233-1.821 2.612-2.052 4.77h-2.053v-8.184c.314.112.648.184 1 .184 1.654 0 3-1.346 3-3s-1.346-3-3-3c-1.302 0-2.402.839-2.816 2h-2.369c-.413-1.161-1.513-2-2.815-2-1.654 0-3 1.346-3 3s1.346 3 3 3c.352 0 .686-.072 1-.184v8.184h-2.053c-.232-2.158-1.191-3.536-2.052-4.77-.975-1.396-1.895-2.714-1.895-5.23 0-2.376.912-4.403 2.639-5.862 2.123-1.796 5.216-2.511 8.489-1.956 4.088.689 6.977 4.092 6.868 8.09-.062 2.339-.951 3.612-1.891 4.958zm-4.105-6.23c0-.552.448-1 1-1s1 .448 1 1-.448 1-1 1-1-.448-1-1zm-6 0c0 .552-.448 1-1 1s-1-.448-1-1 .448-1 1-1 1 .448 1 1z"/><path d="m16 15c1.654 0 3-1.346 3-3s-1.346-3-3-3-3 1.346-3 3 1.346 3 3 3zm0-4c.552 0 1 .448 1 1s-.448 1-1 1-1-.448-1-1 .448-1 1-1z"/><path d="m24 15c1.654 0 3-1.346 3-3s-1.346-3-3-3-3 1.346-3 3 1.346 3 3 3zm0-4c.552 0 1 .448 1 1s-.448 1-1 1-1-.448-1-1 .448-1 1-1z"/><path d="m32 15c1.654 0 3-1.346 3-3s-1.346-3-3-3-3 1.346-3 3 1.346 3 3 3zm0-4c.552 0 1 .448 1 1s-.448 1-1 1-1-.448-1-1 .448-1 1-1z"/><path d="m13 37h14v-14h-14zm2-12h10v10h-10z"/><path d="m29 23h6v2h-6z"/><path d="m37 23h6v2h-6z"/><path d="m29 27h14v2h-14z"/><path d="m29 31h14v2h-14z"/><path d="m29 53h14v-14h-14zm2-12h10v10h-10z"/><path d="m21 39h6v2h-6z"/></g></svg>