<?xml version="1.0"?>
<svg xmlns="http://www.w3.org/2000/svg" width="512" height="512" viewBox="0 0 128 128"><g><path d="M64,50.25A13.75,13.75,0,1,0,77.75,64,13.765,13.765,0,0,0,64,50.25Zm0,24A10.25,10.25,0,1,1,74.25,64,10.261,10.261,0,0,1,64,74.25Z"/><path d="M70,62.25A1.75,1.75,0,0,0,68.25,64a4.274,4.274,0,0,1-2.119,3.676A1.75,1.75,0,1,0,67.894,70.7,7.785,7.785,0,0,0,71.75,64,1.75,1.75,0,0,0,70,62.25Z"/><path d="M109.23,59.91a7.8,7.8,0,0,0,1.954.256,7.751,7.751,0,0,0,5.48-13.228c-.127-.126-.262-.24-.4-.357,1.3-4.714,1-8.82-.953-12.206-4.2-7.28-15.229-9.665-30.362-6.652C79.976,13.111,72.392,4.75,64,4.75S48.025,13.11,43.047,27.724c-15.136-3.015-26.162-.629-30.361,6.65-1.893,3.27-2.225,7.379-1.018,11.94a7.75,7.75,0,0,0,7.039,13.515c1.038,1.381,2.175,2.778,3.4,4.177C11.938,75.61,8.489,86.353,12.685,93.625c3.015,5.227,9.541,7.938,18.583,7.938a61.159,61.159,0,0,0,11.777-1.292C48.022,114.887,55.607,123.25,64,123.25c3.792,0,7.532-1.778,10.893-5.124a7.746,7.746,0,0,0,8.587-12.571c-.126-.127-.261-.242-.394-.358.655-1.549,1.282-3.2,1.874-4.926a61.023,61.023,0,0,0,11.772,1.292c9.041,0,15.568-2.712,18.583-7.938,4.2-7.272.747-18.015-9.42-29.618C107.075,62.66,108.189,61.29,109.23,59.91Zm4.958-4.486a4.255,4.255,0,0,1-6.009,0h0a4.248,4.248,0,1,1,6.01,0Zm-1.905-19.3c1.369,2.377,1.633,5.332.809,8.8A7.745,7.745,0,0,0,105.7,57.9c.126.127.261.241.394.358q-1.218,1.586-2.572,3.148A105.745,105.745,0,0,0,89.56,49.245a107.039,107.039,0,0,0-3.54-18.169C99.208,28.526,108.961,30.365,112.283,36.123ZM82.589,96.182a100.254,100.254,0,0,1-14.278-4.641c2.985-1.443,5.958-3.011,8.875-4.695,2.94-1.7,5.785-3.492,8.5-5.347A100.2,100.2,0,0,1,82.589,96.182Zm-37.178,0a100.179,100.179,0,0,1-3.1-14.683c2.722,1.855,5.566,3.649,8.505,5.347C53.73,88.53,56.7,90.1,59.69,91.541A100.265,100.265,0,0,1,45.411,96.182Zm0-64.364a100.213,100.213,0,0,1,14.278,4.641c-2.986,1.443-5.958,3.011-8.875,4.7-2.94,1.7-5.785,3.492-8.505,5.347A100.151,100.151,0,0,1,45.411,31.818ZM38,74.034A98.792,98.792,0,0,1,26.838,64,98.907,98.907,0,0,1,38,53.966c-.247,3.3-.378,6.663-.378,10.034S37.751,70.73,38,74.034Zm14.567,9.78c-3.788-2.187-7.413-4.535-10.807-6.977-.418-4.191-.638-8.5-.638-12.837s.22-8.645.638-12.837c3.391-2.44,7.017-4.789,10.807-6.977,3.75-2.167,7.594-4.137,11.434-5.878,3.843,1.742,7.686,3.712,11.436,5.878,3.788,2.187,7.413,4.535,10.807,6.977.418,4.191.638,8.5.638,12.837s-.22,8.645-.638,12.837c-3.391,2.44-7.017,4.789-10.807,6.977-3.75,2.167-7.594,4.137-11.434,5.878C60.158,87.95,56.315,85.98,52.565,83.814Zm30.024-52a100.179,100.179,0,0,1,3.1,14.683c-2.722-1.855-5.566-3.649-8.5-5.347C74.27,39.47,71.3,37.9,68.31,36.459A100.265,100.265,0,0,1,82.589,31.818ZM90,53.966A98.792,98.792,0,0,1,101.162,64,98.907,98.907,0,0,1,90,74.034c.247-3.3.378-6.663.378-10.034S90.249,57.27,90,53.966ZM64,8.25c6.638,0,13.113,7.529,17.515,20.225a107.329,107.329,0,0,0-17.516,6,107.245,107.245,0,0,0-17.514-6C50.888,15.778,57.362,8.25,64,8.25ZM13.429,55.424h0a4.256,4.256,0,1,1,3.006,1.242A4.219,4.219,0,0,1,13.428,55.424Zm8.485-8.486a7.75,7.75,0,0,0-7.023-2.109c-.808-3.426-.538-6.35.825-8.7,3.323-5.761,13.076-7.6,26.264-5.049a107.109,107.109,0,0,0-3.541,18.17A105.667,105.667,0,0,0,24.476,61.4q-1.461-1.686-2.73-3.352c.055-.052.114-.1.168-.153a7.757,7.757,0,0,0,0-10.96Zm-6.2,44.937C12.4,86.123,15.682,76.754,24.481,66.6A105.714,105.714,0,0,0,38.44,78.755a107.039,107.039,0,0,0,3.54,18.169C28.791,99.472,19.038,97.634,15.716,91.875ZM81.005,114.04a4.257,4.257,0,1,1,1.242-3.006A4.256,4.256,0,0,1,81.005,114.04Zm-3-10.753a7.747,7.747,0,0,0-5.934,12.728c-2.6,2.477-5.308,3.735-8.066,3.735-6.638,0-13.113-7.529-17.515-20.225a107.329,107.329,0,0,0,17.516-6,107.259,107.259,0,0,0,17.518,6c-.49,1.405-1,2.75-1.534,4.025A7.773,7.773,0,0,0,78,103.287Zm34.284-11.412c-3.323,5.76-13.076,7.6-26.264,5.049a107.109,107.109,0,0,0,3.541-18.17A105.662,105.662,0,0,0,103.519,66.6C112.318,76.754,115.6,86.123,112.284,91.875Z"/></g></svg>
