<?xml version="1.0" encoding="iso-8859-1"?>
<!-- Generator: Adobe Illustrator 19.0.0, SVG Export Plug-In . SVG Version: 6.00 Build 0)  -->
<svg version="1.1" id="Capa_1" xmlns="http://www.w3.org/2000/svg" xmlns:xlink="http://www.w3.org/1999/xlink" x="0px" y="0px"
	 viewBox="0 0 426.4 426.4" style="enable-background:new 0 0 426.4 426.4;" xml:space="preserve">
<g>
	<g>
		<path d="M370.2,264.4c-12.2-8.3-28.2-8.3-40.5,0c-6-4.1-13-6.2-20.2-6.2c-20,0-36.1,16.2-36.1,36.1c0,19.9,16.1,36.2,36.1,36.2
			c7.2,0,14.2-2.1,20.2-6.2c16.5,11.2,39,6.8,50.2-9.7S386.7,275.6,370.2,264.4z M362.1,304.8c-5.7,6.8-15.8,7.7-22.6,2
			c-0.8-0.6-1.4-1.3-2.1-2.1c-1.9-2.3-4.8-3.6-7.7-3.5c-3,0-5.8,1.3-7.7,3.6c-3,3.7-7.6,5.9-12.4,5.8c-8.9,0-16.2-7.2-16.2-16.1
			c-0.1-9,7.1-16.2,16.1-16.2c4.8,0,9.4,2.2,12.4,5.9c3.5,4.3,9.8,5,14.1,1.5c0.5-0.4,1-0.9,1.5-1.5c5.7-6.8,15.8-7.7,22.6-2
			S367.8,298,362.1,304.8z"/>
	</g>
</g>
<g>
	<g>
		<path d="M426,179.6c0-0.9,0.4-1.9,0.4-2.9s-0.4-1.9-0.4-2.8v-21.4c0-23.5-19.3-42.3-42.8-42.3H371V98.1
			c0-23.5-18.7-42.9-42.2-42.9H42.4C18.9,55.2,0,74.6,0,98.1v175.8c-0.1,23.3,18.8,42.2,42.1,42.3c0.1,0,0.2,0,0.3,0H54v12.1
			c0.1,23.6,19.1,42.8,42.7,42.9h286.5c23.6-0.2,42.7-19.3,42.8-42.9V226.5c0-0.9,0.4-1.9,0.4-2.8s-0.4-1.9-0.4-2.8V179.6z
			 M54,152.5v143.7H42.4c-12.2,0.1-22.3-9.7-22.4-21.9c0-0.1,0-0.2,0-0.3V98.1c0-12.4,9.9-22.9,22.4-22.9h286.5
			c12.5,0,22.2,10.5,22.2,22.9v12.1H96.7C73.2,110.2,54,129,54,152.5z M406,328.3c-0.1,12.6-10.2,22.8-22.8,22.9H96.7
			C84.1,351.1,74,340.9,74,328.3v-95.1h332V328.3z M406,213.2H74v-26h332V213.2z M406.1,167.2H406H74v-14.7
			c0.1-12.4,10.2-22.4,22.7-22.3h0.1h286.5c12.5,0,22.8,9.8,22.8,22.3V167.2z"/>
	</g>
</g>
<g>
</g>
<g>
</g>
<g>
</g>
<g>
</g>
<g>
</g>
<g>
</g>
<g>
</g>
<g>
</g>
<g>
</g>
<g>
</g>
<g>
</g>
<g>
</g>
<g>
</g>
<g>
</g>
<g>
</g>
</svg>
