<?xml version="1.0" encoding="iso-8859-1"?>
<!-- Generator: Adobe Illustrator 16.0.0, SVG Export Plug-In . SVG Version: 6.00 Build 0)  -->
<!DOCTYPE svg PUBLIC "-//W3C//DTD SVG 1.1//EN" "http://www.w3.org/Graphics/SVG/1.1/DTD/svg11.dtd">
<svg version="1.1" id="Capa_1" xmlns="http://www.w3.org/2000/svg" xmlns:xlink="http://www.w3.org/1999/xlink" x="0px" y="0px"
	 width="971.67px" height="971.67px" viewBox="0 0 971.67 971.67" style="enable-background:new 0 0 971.67 971.67;"
	 xml:space="preserve">
<g>
	<g>
		<path d="M52.53,490.037v444.255h215.305v-280h156v280h495.306V490.036c32.094-26.979,52.529-67.4,52.529-112.509V245.466
			L842.755,37.378H132.781L0,245.21v132.317C0,422.637,20.436,463.058,52.53,490.037z M283.911,105.378l-57.994,150.628v88.509
			v33.012c0,12.56-2.962,24.435-8.202,34.988c-12.924,26.03-39.779,43.971-70.757,43.971c-9.267,0-18.16-1.618-26.429-4.564
			c-30.577-10.896-52.53-40.124-52.53-74.394v-33.012v-79.437l102.031-159.7H283.911L283.911,105.378z M451.835,105.378v239.138
			v33.012c0,12.56-2.962,24.435-8.202,34.988c-12.924,26.03-39.779,43.971-70.757,43.971s-57.833-17.941-70.757-43.971
			c-5.24-10.553-8.202-22.429-8.202-34.988v-33.012v-75.871l62.86-163.266L451.835,105.378L451.835,105.378z M614.893,105.378
			l62.86,163.267v75.871v33.012c0,12.56-2.962,24.435-8.202,34.988c-12.924,26.03-39.779,43.971-70.757,43.971
			c-30.979,0-57.833-17.941-70.757-43.971c-5.24-10.553-8.202-22.429-8.202-34.988v-33.012V105.378H614.893z M804.891,105.378
			l98.779,159.445v79.693v33.012c0,34.27-21.953,63.499-52.529,74.394c-8.269,2.946-17.161,4.565-26.43,4.565
			c-30.978,0-57.832-17.941-70.756-43.971c-5.24-10.553-8.202-22.429-8.202-34.988v-33.012v-88.509L687.759,105.38h117.132V105.378z
			 M851.141,866.292H491.835v-280h-292v280H120.53V522.1c8.576,1.564,17.408,2.387,26.429,2.387
			c45.359,0,85.98-20.652,112.959-53.052c26.979,32.399,67.6,53.052,112.958,53.052c45.359,0,85.98-20.652,112.959-53.052
			c26.979,32.399,67.601,53.052,112.959,53.052s85.98-20.651,112.959-53.052c26.979,32.399,67.6,53.052,112.958,53.052
			c9.021,0,17.853-0.822,26.43-2.387V866.292L851.141,866.292z"/>
	</g>
</g>
<g>
</g>
<g>
</g>
<g>
</g>
<g>
</g>
<g>
</g>
<g>
</g>
<g>
</g>
<g>
</g>
<g>
</g>
<g>
</g>
<g>
</g>
<g>
</g>
<g>
</g>
<g>
</g>
<g>
</g>
</svg>
