<?xml version="1.0" encoding="iso-8859-1"?>
<!-- Generator: Adobe Illustrator 19.0.0, SVG Export Plug-In . SVG Version: 6.00 Build 0)  -->
<svg version="1.1" id="Capa_1" xmlns="http://www.w3.org/2000/svg" xmlns:xlink="http://www.w3.org/1999/xlink" x="0px" y="0px"
	 viewBox="0 0 349.6 349.6" style="enable-background:new 0 0 349.6 349.6;" xml:space="preserve">
<g>
	<g>
		<path d="M343.2,14.6H6.4C2.8,14.6,0,17.4,0,21v94.4c0,3.6,2.8,6.4,6.4,6.4H20v206.8c0.4,3.2,3.2,6.4,6.8,6.4h294
			c3.6,0,6.4-2.8,6.4-6.4V121.8h16c3.6,0,6.4-2.8,6.4-6.4V21C349.6,17.4,346.8,14.6,343.2,14.6z M314,321.8H33.2v-200H122v46
			c0,3.6,2.8,6.4,6.4,6.4h92.8c3.6,0,6.4-2.8,6.4-6.4v-46H314V321.8z M134.8,161v-39.2h80V161H134.8z M336.8,108.6H13.2V27.4h323.6
			V108.6z"/>
	</g>
</g>
<g>
</g>
<g>
</g>
<g>
</g>
<g>
</g>
<g>
</g>
<g>
</g>
<g>
</g>
<g>
</g>
<g>
</g>
<g>
</g>
<g>
</g>
<g>
</g>
<g>
</g>
<g>
</g>
<g>
</g>
</svg>
