<svg height="512pt" viewBox="0 0 512 512" width="512pt" xmlns="http://www.w3.org/2000/svg"><path d="m255 401c-11.046875 0-20-8.953125-20-20s8.953125-20 20-20 20 8.953125 20 20-8.953125 20-20 20zm20-90v-26.855469c38.671875-9.355469 65.464844-44.441406 63.9375-84.117187-1.660156-43.203125-37.105469-78.332032-80.695312-79.964844-23.289063-.882812-45.28125 7.460938-61.90625 23.472656-16.339844 15.738282-25.335938 36.855469-25.335938 59.464844 0 11.046875 8.953125 20 20 20s20-8.953125 20-20c0-11.640625 4.644531-22.527344 13.082031-30.652344 8.726563-8.402344 20.316407-12.773437 32.660157-12.316406 22.816406.859375 41.363281 19.101562 42.226562 41.535156.800781 20.90625-13.628906 39.378906-34.320312 43.917969-17.457032 3.832031-29.648438 18.917969-29.648438 36.691406v28.824219c0 11.046875 8.953125 20 20 20s20-8.953125 20-20zm113.460938 164.105469c9.449218-5.722657 12.46875-18.019531 6.746093-27.464844-5.726562-9.449219-18.023437-12.46875-27.46875-6.746094-33.59375 20.347657-72.234375 31.105469-111.738281 31.105469-119.101562 0-216-96.898438-216-216s96.898438-216 216-216 216 96.898438 216 216c0 42.589844-12.664062 84.042969-36.625 119.886719-6.140625 9.179687-3.671875 21.601562 5.507812 27.742187 9.183594 6.140625 21.605469 3.671875 27.742188-5.511718 28.378906-42.441407 43.375-91.585938 43.375-142.117188 0-68.378906-26.628906-132.667969-74.980469-181.019531-48.351562-48.351563-112.640625-74.980469-181.019531-74.980469s-132.667969 26.628906-181.019531 74.980469c-48.351563 48.351562-74.980469 112.640625-74.980469 181.019531s26.628906 132.667969 74.980469 181.019531c48.351562 48.351563 112.640625 74.980469 181.019531 74.980469 46.8125 0 92.617188-12.757812 132.460938-36.894531zm0 0"/></svg>