<?xml version="1.0" encoding="iso-8859-1"?>
<!-- Generator: Adobe Illustrator 19.0.0, SVG Export Plug-In . SVG Version: 6.00 Build 0)  -->
<svg version="1.1" id="Capa_1" xmlns="http://www.w3.org/2000/svg" xmlns:xlink="http://www.w3.org/1999/xlink" x="0px" y="0px"
	 viewBox="0 0 512 512" style="enable-background:new 0 0 512 512;" xml:space="preserve">
<g>
	<g>
		<path d="M512,298.333v-84.667l-69.42-13.675c-3.783-12.585-8.833-24.739-15.083-36.309l38.724-58.087L406.404,45.78
			l-58.086,38.724c-11.569-6.251-23.725-11.3-36.31-15.083L298.333,0h-84.666l-13.676,69.42
			c-12.584,3.783-24.739,8.832-36.31,15.083L105.596,45.78L45.78,105.596l38.724,58.087c-6.25,11.57-11.3,23.724-15.083,36.309
			L0,213.667v84.667l69.42,13.676c3.783,12.584,8.833,24.739,15.083,36.309l-38.724,58.087l59.816,59.816l58.086-38.724
			c11.57,6.251,23.726,11.3,36.31,15.083L213.667,512h84.666l13.676-69.42c12.585-3.783,24.739-8.832,36.31-15.083l58.086,38.724
			l59.816-59.816l-38.724-58.087c6.25-11.57,11.3-23.724,15.083-36.309L512,298.333z M427.617,402.582l-25.035,25.035
			l-53.278-35.519c-27.034,16.387-35.993,19.506-63.088,26.2L273.667,482h-35.334l-12.549-63.702
			c-30.833-7.617-39.367-11.822-63.088-26.2l-53.278,35.519l-25.035-25.035l35.519-53.278c-16.499-27.218-19.557-36.212-26.2-63.088
			L30,273.667v-35.333l63.701-12.549c6.552-26.51,9.554-35.628,26.2-63.088l-35.519-53.278l25.035-25.035l53.278,35.518
			c27.256-16.52,36.263-19.572,63.088-26.2L238.333,30h35.334l12.549,63.702c30.893,7.633,39.418,11.852,63.088,26.2l53.278-35.518
			l25.035,25.035l-35.519,53.278c16.354,26.979,19.49,35.938,26.2,63.088L482,238.333v35.333l-63.701,12.549
			c-7.636,30.894-11.833,39.386-26.2,63.088L427.617,402.582z"/>
	</g>
</g>
<g>
	<g>
		<path d="M256,151c-57.897,0-105,47.103-105,105c0,57.897,47.103,105,105,105c57.897,0,105-47.103,105-105
			C361,198.103,313.897,151,256,151z M256,331c-41.355,0-75-33.645-75-75c0-41.355,33.645-75,75-75s75,33.645,75,75
			S297.355,331,256,331z"/>
	</g>
</g>
<g>
</g>
<g>
</g>
<g>
</g>
<g>
</g>
<g>
</g>
<g>
</g>
<g>
</g>
<g>
</g>
<g>
</g>
<g>
</g>
<g>
</g>
<g>
</g>
<g>
</g>
<g>
</g>
<g>
</g>
</svg>
