<?xml version="1.0" encoding="iso-8859-1"?>
<!-- Generator: Adobe Illustrator 19.0.0, SVG Export Plug-In . SVG Version: 6.00 Build 0)  -->
<svg version="1.1" id="Capa_1" xmlns="http://www.w3.org/2000/svg" xmlns:xlink="http://www.w3.org/1999/xlink" x="0px" y="0px"
	 viewBox="0 0 512 512" style="enable-background:new 0 0 512 512;" xml:space="preserve">
<g>
	<g>
		<path d="M472.83,81.651V20c0-11.046-8.954-20-20-20c-11.046,0-20,8.954-20,20v61.651c-22.813,8.219-39.17,30.074-39.17,55.683
			s16.357,47.464,39.17,55.683V492c0,11.046,8.954,20,20,20c11.046,0,20-8.954,20-20V193.017
			c22.813-8.219,39.17-30.074,39.17-55.683S495.643,89.87,472.83,81.651z M452.83,156.504c-10.57,0-19.17-8.6-19.17-19.17
			s8.6-19.17,19.17-19.17s19.17,8.6,19.17,19.17S463.4,156.504,452.83,156.504z"/>
	</g>
</g>
<g>
	<g>
		<path d="M276,318.983V20c0-11.046-8.954-20-20-20c-11.046,0-20,8.954-20,20v298.983c-22.813,8.219-39.17,30.074-39.17,55.683
			s16.357,47.464,39.17,55.683V492c0,11.046,8.954,20,20,20s20-8.954,20-20v-61.651c22.813-8.219,39.17-30.074,39.17-55.683
			C315.17,349.057,298.813,327.202,276,318.983z M256,393.836c-10.57,0-19.17-8.6-19.17-19.17s8.6-19.17,19.17-19.17
			s19.17,8.6,19.17,19.17S266.57,393.836,256,393.836z"/>
	</g>
</g>
<g>
	<g>
		<path d="M79.17,81.651V20c0-11.046-8.954-20-20-20c-11.046,0-20,8.954-20,20v61.651C16.357,89.87,0,111.725,0,137.334
			s16.357,47.464,39.17,55.683V492c0,11.046,8.954,20,20,20c11.046,0,20-8.954,20-20V193.017
			c22.813-8.219,39.17-30.074,39.17-55.683S101.983,89.87,79.17,81.651z M59.17,156.504c-10.57,0-19.17-8.6-19.17-19.17
			s8.6-19.17,19.17-19.17s19.17,8.6,19.17,19.17S69.74,156.504,59.17,156.504z"/>
	</g>
</g>
<g>
</g>
<g>
</g>
<g>
</g>
<g>
</g>
<g>
</g>
<g>
</g>
<g>
</g>
<g>
</g>
<g>
</g>
<g>
</g>
<g>
</g>
<g>
</g>
<g>
</g>
<g>
</g>
<g>
</g>
</svg>
