<?xml version="1.0" encoding="iso-8859-1"?>
<!-- Generator: Adobe Illustrator 19.0.0, SVG Export Plug-In . SVG Version: 6.00 Build 0)  -->
<svg version="1.1" id="Capa_1" xmlns="http://www.w3.org/2000/svg" xmlns:xlink="http://www.w3.org/1999/xlink" x="0px" y="0px"
	 viewBox="0 0 433.688 433.688" style="enable-background:new 0 0 433.688 433.688;" xml:space="preserve">
<g>
	<g>
		<path d="M417.28,162.316h-22.528v-50.688c0-9.216-7.68-16.896-16.896-16.896H16.896C7.68,94.732,0,102.412,0,111.628V322.06
			c0,9.216,7.68,16.896,16.896,16.896h360.448c9.216,0,16.896-7.68,16.896-16.896v-50.688h22.528c9.216,0,16.896-7.68,16.896-16.896
			v-75.264C434.176,169.996,426.496,162.316,417.28,162.316z M201.728,265.74l-28.16-49.152l-75.264,7.168l94.208-56.32
			l28.16,50.688l75.264-7.168L201.728,265.74z"/>
	</g>
</g>
<g>
</g>
<g>
</g>
<g>
</g>
<g>
</g>
<g>
</g>
<g>
</g>
<g>
</g>
<g>
</g>
<g>
</g>
<g>
</g>
<g>
</g>
<g>
</g>
<g>
</g>
<g>
</g>
<g>
</g>
</svg>
