<svg width="131" height="131" viewBox="0 0 131 131" fill="none" xmlns="http://www.w3.org/2000/svg">
<path d="M131 65.5C131 48.1283 124.099 31.4681 111.815 19.1845C99.5319 6.90087 82.8717 1.31153e-06 65.5 0C48.1283 -1.31153e-06 31.4681 6.90087 19.1845 19.1845C6.90088 31.4681 2.62305e-06 48.1283 0 65.5L65.5 65.5H131Z" fill="#456EFE"/>
<path d="M0 65.5C0 82.8717 6.90087 99.5319 19.1845 111.815C31.4681 124.099 48.1283 131 65.5 131C82.8717 131 99.5319 124.099 111.815 111.815C124.099 99.5319 131 82.8717 131 65.5L65.5 65.5H0Z" fill="#1CCD9D"/>
<circle cx="65.9048" cy="64.9048" r="39.9048" fill="white"/>
</svg>
