<?xml version="1.0" encoding="iso-8859-1"?>
<!-- Generator: Adobe Illustrator 16.0.0, SVG Export Plug-In . SVG Version: 6.00 Build 0)  -->
<!DOCTYPE svg PUBLIC "-//W3C//DTD SVG 1.1//EN" "http://www.w3.org/Graphics/SVG/1.1/DTD/svg11.dtd">
<svg version="1.1" id="Capa_1" xmlns="http://www.w3.org/2000/svg" xmlns:xlink="http://www.w3.org/1999/xlink" x="0px" y="0px"
	 width="38.355px" height="38.354px" viewBox="0 0 38.355 38.354" style="enable-background:new 0 0 38.355 38.354;"
	 xml:space="preserve">
<g>
	<path d="M24.285,9.479h3.776l-0.065-2.3h-3.192l3-6.2L24.41,0.695l-2.981,2.285l0.994-2.584L18.944,0l-1.141,3.229l-1.875-2.5
		L10.77,0.55l3.413,6.63l-3.081-0.099v2.397h2.969C7.739,13.184,3.177,22.871,3.177,28.104c0,6.56,7.164,10.25,16,10.25
		s16-3.69,16-10.25C35.178,22.871,30.617,13.185,24.285,9.479z M20.515,31.251v2.271h-2.183v-2.115
		c-1.492-0.065-2.94-0.469-3.786-0.957l0.668-2.604c0.935,0.513,2.25,0.979,3.697,0.979c1.269,0,2.138-0.49,2.138-1.379
		c0-0.849-0.712-1.384-2.36-1.939c-2.384-0.801-4.009-1.916-4.009-4.074c0-1.96,1.381-3.498,3.764-3.964v-2.116h2.183v1.96
		c1.491,0.068,2.495,0.377,3.229,0.734l-0.646,2.517c-0.579-0.244-1.604-0.758-3.207-0.758c-1.448,0-1.916,0.623-1.916,1.246
		c0,0.736,0.78,1.203,2.673,1.916c2.649,0.938,3.719,2.16,3.719,4.166C24.48,29.113,23.076,30.806,20.515,31.251z"/>
</g>
<g>
</g>
<g>
</g>
<g>
</g>
<g>
</g>
<g>
</g>
<g>
</g>
<g>
</g>
<g>
</g>
<g>
</g>
<g>
</g>
<g>
</g>
<g>
</g>
<g>
</g>
<g>
</g>
<g>
</g>
</svg>
