<?xml version="1.0" encoding="iso-8859-1"?>
<!-- Generator: Adobe Illustrator 19.0.0, SVG Export Plug-In . SVG Version: 6.00 Build 0)  -->
<svg version="1.1" id="Capa_1" xmlns="http://www.w3.org/2000/svg" xmlns:xlink="http://www.w3.org/1999/xlink" x="0px" y="0px"
	 viewBox="0 0 512 512" style="enable-background:new 0 0 512 512;" xml:space="preserve">
<g>
	<g>
		<path d="M435.2,84.48V25.6c0-12.8-10.24-25.6-25.6-25.6C396.8,0,384,12.8,384,25.6v58.88c-15.36,7.68-25.6,23.04-25.6,43.52
			c0,17.92,10.24,35.84,25.6,43.52V486.4c0,15.36,12.8,25.6,25.6,25.6c15.36,0,25.6-10.24,25.6-25.6V171.52
			c15.36-7.68,25.6-25.6,25.6-43.52C460.8,107.52,450.56,92.16,435.2,84.48z"/>
	</g>
</g>
<g>
	<g>
		<path d="M128,161.28V25.6C128,12.8,117.76,0,102.4,0C89.6,0,76.8,12.8,76.8,25.6v135.68c-15.36,7.68-25.6,23.04-25.6,43.52
			c0,17.92,10.24,35.84,25.6,43.52V486.4c0,15.36,12.8,25.6,25.6,25.6c15.36,0,25.6-10.24,25.6-25.6V248.32
			c15.36-7.68,25.6-25.6,25.6-43.52C153.6,184.32,143.36,168.96,128,161.28z"/>
	</g>
</g>
<g>
	<g>
		<path d="M281.6,289.28V25.6C281.6,12.8,271.36,0,256,0c-12.8,0-25.6,12.8-25.6,25.6v263.68c-15.36,7.68-25.6,23.04-25.6,43.52
			c0,17.92,10.24,35.84,25.6,43.52V486.4c0,15.36,12.8,25.6,25.6,25.6c15.36,0,25.6-10.24,25.6-25.6V376.32
			c15.36-7.68,25.6-25.6,25.6-43.52C307.2,312.32,296.96,296.96,281.6,289.28z"/>
	</g>
</g>
<g>
</g>
<g>
</g>
<g>
</g>
<g>
</g>
<g>
</g>
<g>
</g>
<g>
</g>
<g>
</g>
<g>
</g>
<g>
</g>
<g>
</g>
<g>
</g>
<g>
</g>
<g>
</g>
<g>
</g>
</svg>
