<svg id="Solid" height="512" viewBox="0 0 512 512" width="512" xmlns="http://www.w3.org/2000/svg"><g id="_09_copy_6" data-name="09 copy 6"><g><g><path d="m164.184 96-11.884-29.714-7.351 31.844a39.162 39.162 0 0 1 12.786-2.13z"/><path d="m277.3 88h-42.6a11.978 11.978 0 0 0 -9.985 5.344l-1.767 2.656h66.1l-1.771-2.657a11.979 11.979 0 0 0 -9.977-5.343z"/><path d="m181.416 96h22.3l7.687-11.532a27.947 27.947 0 0 1 23.297-12.468h42.6a27.947 27.947 0 0 1 23.3 12.468l7.681 11.532h22.3l24.5-61.257a2 2 0 0 0 -1.852-2.743h-29.086a2.012 2.012 0 0 0 -1.414.585l-21.072 21.072a8 8 0 0 1 -5.657 2.343h-80a8 8 0 0 1 -5.657-2.343l-21.072-21.072a2.012 2.012 0 0 0 -1.414-.585h-29.086a2 2 0 0 0 -1.858 2.743z"/><path d="m354.265 96a39.162 39.162 0 0 1 12.786 2.13l-7.351-31.844-11.884 29.714z"/><path d="m352 328h33.327l-.261-6.263-.073-1.737h-32.993z"/><path d="m390.661 456.043-1.987-47.71-2.681-64.333h-33.993v76a28.032 28.032 0 0 1 -28 28h-136a28.032 28.032 0 0 1 -28-28v-76h-33.993l-4.668 112.042a23 23 0 0 0 22.979 23.958h223.364a23 23 0 0 0 22.979-23.957z"/><path d="m336 172a12.013 12.013 0 0 0 -12-12h-136a12.013 12.013 0 0 0 -12 12v60h160zm-16 36h-24v-16h24z"/><path d="m160 320h-32.993l-.333 8h33.326z"/><path d="m160 172a28.032 28.032 0 0 1 28-28h136a28.032 28.032 0 0 1 28 28v132h32.327l-7.082-169.958a22.954 22.954 0 0 0 -4.207-12.364l-.525.121-.273-1.181a22.938 22.938 0 0 0 -17.975-8.618h-66.265v16h-16v-16h-32v16h-16v-16h-66.265a22.936 22.936 0 0 0 -17.975 8.619l-.273 1.18-.525-.121a22.958 22.958 0 0 0 -4.207 12.365l-7.081 169.957h32.326z"/></g><g><path d="m208 248v16h-16v-16h-16v172a12.013 12.013 0 0 0 12 12h136a12.013 12.013 0 0 0 12-12v-172zm120 148a28.032 28.032 0 0 1 -28 28h-28a8 8 0 0 1 -8-8v-4a28.032 28.032 0 0 1 28-28h28a8 8 0 0 1 8 8z"/><path d="m280.686 408h19.314a12.02 12.02 0 0 0 11.314-8h-19.314a12.02 12.02 0 0 0 -11.314 8z"/></g></g></g></svg>