<svg viewBox="0 0 512 512" xmlns="http://www.w3.org/2000/svg"><path d="m484.101562 263.835938 4.800782-7.835938-4.800782-7.839844c-.804687-1.308594-20.117187-32.480468-57.636718-63.71875-49.902344-41.542968-108.691406-63.503906-170.015625-63.503906-61.308594 0-120.242188 21.949219-170.429688 63.472656-37.734375 31.222656-57.265625 62.371094-58.078125 63.683594l-4.902344 7.90625 4.902344 7.90625c.8125 1.3125 20.34375 32.460938 58.078125 63.683594 50.1875 41.523437 109.121094 63.472656 170.429688 63.472656 61.324219 0 120.113281-21.960938 170.015625-63.503906 37.519531-31.238282 56.832031-62.410156 57.636718-63.722656zm-77.628906 41.324218c-44.890625 37.09375-95.367187 55.898438-150.023437 55.898438-54.675781 0-105.316407-18.816406-150.511719-55.933594-23.375-19.195312-39.222656-38.632812-46.984375-49.125 7.765625-10.5 23.613281-29.933594 46.984375-49.128906 45.195312-37.113282 95.832031-55.933594 150.511719-55.933594 54.65625 0 105.128906 18.808594 150.023437 55.898438 23.269532 19.226562 38.980469 38.691406 46.636719 49.164062-7.664063 10.476562-23.371094 29.941406-46.636719 49.160156zm0 0"/><path d="m256 165.867188c-49.699219 0-90.132812 40.433593-90.132812 90.132812s40.433593 90.132812 90.132812 90.132812 90.132812-40.433593 90.132812-90.132812-40.433593-90.132812-90.132812-90.132812zm0 150.265624c-33.15625 0-60.132812-26.976562-60.132812-60.132812s26.976562-60.132812 60.132812-60.132812 60.132812 26.976562 60.132812 60.132812-26.976562 60.132812-60.132812 60.132812zm0 0"/><path d="m30 30h62.625v-30h-92.625v91.5h30zm0 0"/><path d="m419.375 0v30h62.625v61.5h30v-91.5zm0 0"/><path d="m30 420.5h-30v91.5h92.625v-30h-62.625zm0 0"/><path d="m482 482h-62.625v30h92.625v-91.5h-30zm0 0"/></svg>