<svg id="regular" enable-background="new 0 0 24 24" height="512" viewBox="0 0 24 24" width="512" xmlns="http://www.w3.org/2000/svg"><path d="m11.99 0c-2.577 0-3.461 1.836-4.54 4.074-6.43 12.818-6.43 13.524-6.43 14.806 0 1.511.643 2.935 1.763 3.906 1.482 1.285 3.515 1.335 4.088 1.096l.002.009c2.029-.244 3.777-1.752 5.127-3.262 5.479 6.128 10.98 2.714 10.98-1.749 0-1.282 0-1.988-6.427-14.801-1.087-2.252-1.958-4.079-4.563-4.079zm.01 18.318c-1.637-2.167-2.5-4.033-2.5-5.408 0-1.844 1.256-2.67 2.5-2.67s2.5.826 2.5 2.67c0 1.376-.863 3.241-2.5 5.408zm9.48.562c0 3.141-3.843 5.874-8.486.608 1.995-2.576 3.006-4.789 3.006-6.578 0-2.738-2.012-4.17-4-4.17s-4 1.432-4 4.17c0 1.789 1.012 4.002 3.006 6.578-4.823 5.47-8.486 2.341-8.486-.608 0-1.996 3.285-7.853 6.432-14.468.923-1.913 1.478-2.912 3.058-2.912 1.826 0 2.308 1.481 3.196 3.238.001.003.002.005.004.008 6.27 12.501 6.27 13.186 6.27 14.134z"/></svg>