<svg id="Bold" enable-background="new 0 0 24 24" height="512" viewBox="0 0 24 24" width="512" xmlns="http://www.w3.org/2000/svg"><path d="m.096 11.243c.267.777 1.023 1.286 1.8 1.318.365.054.643-.086 3.092-.9l1.623 4.822-2.432.809c-1.018.333-1.559 1.441-1.232 2.46.267.777 1.023 1.286 1.8 1.318.365.054.643-.086 3.092-.901l.841 2.518c.317.905 1.323 1.553 2.464 1.226 1.023-.333 1.559-1.436 1.232-2.46l-.841-2.518 5.014-1.677.841 2.518c.317.905 1.323 1.553 2.464 1.226 1.023-.333 1.559-1.436 1.232-2.46l-.841-2.518 2.432-.809c1.018-.321 1.559-1.431 1.226-2.448l-.001-.001c-.333-1.018-1.441-1.559-2.464-1.226l-2.432.809-1.623-4.822 2.432-.809c1.023-.333 1.559-1.436 1.232-2.46-.333-1.018-1.441-1.559-2.464-1.226l-2.433.81-.841-2.518c-.333-1.018-1.441-1.559-2.464-1.226s-1.559 1.436-1.232 2.46l.841 2.518-5.004 1.671-.841-2.518c-.333-1.019-1.441-1.559-2.464-1.227-1.023.333-1.559 1.436-1.232 2.46l.841 2.518-2.426.803c-1.023.333-1.559 1.436-1.232 2.46zm13.578-2.455 1.623 4.833-5.009 1.677-1.623-4.832z"/></svg>