<?xml version="1.0" encoding="utf-8"?>
<!-- Generator: Adobe Illustrator 16.0.0, SVG Export Plug-In . SVG Version: 6.00 Build 0)  -->
<!DOCTYPE svg PUBLIC "-//W3C//DTD SVG 1.1//EN" "http://www.w3.org/Graphics/SVG/1.1/DTD/svg11.dtd">
<svg version="1.1" id="Layer_1" xmlns="http://www.w3.org/2000/svg" xmlns:xlink="http://www.w3.org/1999/xlink" x="0px" y="0px"
	 width="512px" height="512px" viewBox="0 0 512 512" enable-background="new 0 0 512 512" xml:space="preserve">
<path d="M398.594,6.205H113.41c-24.719,0-44.756,20.037-44.756,44.756v410.078c0,24.719,20.037,44.756,44.756,44.756h285.184
	c24.719,0,44.752-20.037,44.752-44.756V50.961C443.346,26.242,423.313,6.205,398.594,6.205z M351.365,431.832
	c0,13.272-10.732,24.036-24.035,24.036H184.676c-13.291,0-24.041-10.764-24.041-24.036v-62.497
	c0-24.832,12.945-46.526,32.381-59.015c13.24,23.17,35.99,40.897,62.986,40.897c27.01,0,49.746-17.728,62.986-40.916
	c19.43,12.507,32.377,34.201,32.377,59.033V431.832z M256.002,215.002c27.875,0,50.449,22.587,50.449,50.462
	c0,27.844-22.574,60.776-50.449,60.776s-50.447-32.933-50.447-60.776C205.555,237.589,228.127,215.002,256.002,215.002z
	 M321.262,162.326H190.738c-9.205,0-16.65-7.448-16.65-16.649c0-9.206,7.445-16.655,16.65-16.655h130.523
	c9.205,0,16.654,7.449,16.654,16.655C337.916,154.878,330.467,162.326,321.262,162.326z M362.895,95.718H149.105
	c-9.205,0-16.654-7.449-16.654-16.655c0-9.205,7.449-16.654,16.654-16.654h213.789c9.205,0,16.654,7.449,16.654,16.654
	C379.549,88.269,372.1,95.718,362.895,95.718z"/>
</svg>
