<svg id="Capa_1" enable-background="new 0 0 512 512" height="512" viewBox="0 0 512 512" width="512" xmlns="http://www.w3.org/2000/svg"><g><path d="m121.472 166.116c2.024 24.213 6.672 57.38 17.189 92.205 22.336 73.956 61.794 126.543 117.339 156.427 55.545-29.884 95.003-82.471 117.338-156.427 10.517-34.822 15.164-67.99 17.19-92.205l-134.528-67.264z"/><path d="m481.854 119.657c-.28-5.394-3.44-10.221-8.271-12.636l-210.875-105.438c-4.223-2.111-9.193-2.111-13.416 0l-210.875 105.438c-4.831 2.415-7.991 7.242-8.271 12.636-.16 3.07-3.628 76.168 21.273 161.035 14.734 50.214 36.406 94.071 64.414 130.354 35.295 45.722 80.659 79.357 134.832 99.973 1.719.653 3.526.98 5.335.98s3.616-.327 5.335-.98c54.173-20.615 99.537-54.251 134.832-99.973 28.008-36.283 49.68-80.141 64.414-130.354 24.901-84.867 21.433-157.965 21.273-161.035zm-219.206 325.414c-2.095 1.036-4.372 1.554-6.648 1.554s-4.554-.518-6.648-1.554c-66.792-33.024-113.696-92.938-139.408-178.076-12.86-42.583-17.503-82.709-19.133-108.871-.375-6.008 2.879-11.657 8.263-14.349l150.219-75.109c4.223-2.11 9.193-2.111 13.416 0l150.22 75.109c5.384 2.691 8.638 8.342 8.263 14.35-1.631 26.164-6.274 66.291-19.134 108.87-25.714 85.137-72.618 145.051-139.41 178.076z"/></g></svg>