<svg id="Layer_1" enable-background="new 0 0 512 512" height="512" viewBox="0 0 512 512" width="512" xmlns="http://www.w3.org/2000/svg"><g><path d="m0 429.25c0 8.284 6.716 15 15 15h22.75v-342.625h-37.75z"/><path d="m444.25 15c0-8.284-6.716-15-15-15h-414.25c-8.284 0-15 6.716-15 15v56.625h37.75v-18.875c0-8.284 6.716-15 15-15h391.5z"/><path d="m82.75 512h281.298v-132.962c0-8.284 6.716-15 15-15h132.952v-211.6h-444.25v344.562c0 8.284 6.716 15 15 15z"/><path d="m394.048 490.785 96.74-96.747h-96.74z"/><path d="m497 67.75h-429.25v54.688h444.25v-39.688c0-8.284-6.716-15-15-15z"/></g></svg>