<?xml version="1.0" encoding="iso-8859-1"?>
<!-- Generator: Adobe Illustrator 17.1.0, SVG Export Plug-In . SVG Version: 6.00 Build 0)  -->
<!DOCTYPE svg PUBLIC "-//W3C//DTD SVG 1.1//EN" "http://www.w3.org/Graphics/SVG/1.1/DTD/svg11.dtd">
<svg version="1.1" id="Capa_1" xmlns="http://www.w3.org/2000/svg" xmlns:xlink="http://www.w3.org/1999/xlink" x="0px" y="0px"
	 viewBox="0 0 233.666 233.666" style="enable-background:new 0 0 233.666 233.666;" xml:space="preserve">
<path d="M226.166,104.833h-0.492l-27.135-47h14.263c4.143,0,7.5-3.357,7.5-7.5V39.666c0-4.143-3.357-7.5-7.5-7.5h-88.469V11.333
	c0-4.143-3.357-7.5-7.5-7.5c-4.142,0-7.5,3.357-7.5,7.5v20.833H20.864c-4.142,0-7.5,3.357-7.5,7.5v10.667c0,4.143,3.358,7.5,7.5,7.5
	h14.264l-27.135,47H7.5c-4.142,0-7.5,3.357-7.5,7.5C0,137.79,20.71,158.5,46.167,158.5s46.167-20.71,46.167-46.167
	c0-4.143-3.358-7.5-7.5-7.5h-0.492l-27.135-47h52.128V195.5h-24.5c-9.466,0-17.167,7.7-17.167,17.166s7.701,17.167,17.167,17.167h64
	c9.466,0,17.167-7.701,17.167-17.167s-7.701-17.166-17.167-17.166h-24.5V57.833h52.128l-27.135,47h-0.493
	c-4.143,0-7.5,3.357-7.5,7.5c0,25.457,20.71,46.167,46.167,46.167c25.456,0,46.166-20.71,46.166-46.167
	C233.666,108.19,230.309,104.833,226.166,104.833z M25.313,104.833l20.854-36.12l20.854,36.12H25.313z M187.5,68.713l20.854,36.12
	h-41.708L187.5,68.713z"/>
<g>
</g>
<g>
</g>
<g>
</g>
<g>
</g>
<g>
</g>
<g>
</g>
<g>
</g>
<g>
</g>
<g>
</g>
<g>
</g>
<g>
</g>
<g>
</g>
<g>
</g>
<g>
</g>
<g>
</g>
</svg>
