<svg id="_x31_" enable-background="new 0 0 24 24" height="512" viewBox="0 0 24 24" width="512" xmlns="http://www.w3.org/2000/svg"><g><path d="m23.5 21.5c-.045 0-.091-.006-.136-.019l-23-6.5c-.216-.061-.364-.257-.364-.481v-5c0-.239.169-.445.404-.49l2.418-.473 20.537-6.017c.151-.045.314-.016.44.079s.201.244.201.401v18c0 .156-.073.305-.198.398-.088.067-.194.102-.302.102zm-22.5-7.378 22 6.217v-16.672l-19.941 5.84-2.059.404z"/></g><g><path d="m23.5 22c-.276 0-.5-.224-.5-.5v-19c0-.276.224-.5.5-.5s.5.224.5.5v19c0 .276-.224.5-.5.5z"/></g><g><path d="m.5 15.5c-.276 0-.5-.224-.5-.5v-6c0-.276.224-.5.5-.5s.5.224.5.5v6c0 .276-.224.5-.5.5z"/></g><g><path d="m8 21c-2.206 0-4-1.794-4-4 0-.551.102-1.057.304-1.505.113-.251.41-.364.661-.251.252.113.364.409.251.661-.143.319-.216.687-.216 1.095 0 1.654 1.346 3 3 3 1.468 0 2.712-1.049 2.957-2.494.046-.271.308-.455.577-.409.272.047.456.305.41.577-.328 1.927-1.986 3.326-3.944 3.326z"/></g></svg>