<?xml version="1.0" encoding="iso-8859-1"?>
<!-- Generator: Adobe Illustrator 19.0.0, SVG Export Plug-In . SVG Version: 6.00 Build 0)  -->
<svg version="1.1" id="Capa_1" xmlns="http://www.w3.org/2000/svg" xmlns:xlink="http://www.w3.org/1999/xlink" x="0px" y="0px"
	 viewBox="0 0 477.867 477.867" style="enable-background:new 0 0 477.867 477.867;" xml:space="preserve">
<g>
	<g>
		<path d="M426.667,68.267H51.2c-28.277,0-51.2,22.923-51.2,51.2V358.4c0,28.277,22.923,51.2,51.2,51.2h375.467
			c28.277,0,51.2-22.923,51.2-51.2V119.467C477.867,91.19,454.944,68.267,426.667,68.267z M443.733,358.4
			c0,9.426-7.641,17.067-17.067,17.067H51.2c-9.426,0-17.067-7.641-17.067-17.067V256h409.6V358.4z M443.733,221.867h-409.6v-34.133
			h409.6V221.867z M443.733,153.6h-409.6v-34.133c0-9.426,7.641-17.067,17.067-17.067h375.467c9.426,0,17.067,7.641,17.067,17.067
			V153.6z"/>
	</g>
</g>
<g>
	<g>
		<path d="M392.533,290.133h-68.267c-9.426,0-17.067,7.641-17.067,17.067s7.641,17.067,17.067,17.067h68.267
			c9.426,0,17.067-7.641,17.067-17.067S401.959,290.133,392.533,290.133z"/>
	</g>
</g>
<g>
</g>
<g>
</g>
<g>
</g>
<g>
</g>
<g>
</g>
<g>
</g>
<g>
</g>
<g>
</g>
<g>
</g>
<g>
</g>
<g>
</g>
<g>
</g>
<g>
</g>
<g>
</g>
<g>
</g>
</svg>
