<?xml version="1.0" encoding="iso-8859-1"?>
<!-- Generator: Adobe Illustrator 19.0.0, SVG Export Plug-In . SVG Version: 6.00 Build 0)  -->
<svg version="1.1" id="Capa_1" xmlns="http://www.w3.org/2000/svg" xmlns:xlink="http://www.w3.org/1999/xlink" x="0px" y="0px"
	 viewBox="0 0 512 512" style="enable-background:new 0 0 512 512;" xml:space="preserve">
<g>
	<g>
		<path d="M0,208v192c0,17.664,14.368,32,32,32h448c17.664,0,32-14.336,32-32V208H0z M176,336H80c-8.832,0-16-7.168-16-16
			c0-8.832,7.168-16,16-16h96c8.832,0,16,7.168,16,16C192,328.832,184.832,336,176,336z M400,368c-12.352,0-23.488-4.8-32-12.448
			C359.488,363.2,348.352,368,336,368c-26.496,0-48-21.504-48-48c0-26.496,21.504-48,48-48c12.352,0,23.488,4.8,32,12.448
			C376.512,276.8,387.648,272,400,272c26.496,0,48,21.504,48,48C448,346.496,426.496,368,400,368z"/>
	</g>
</g>
<g>
	<g>
		<path d="M480,80H32C14.368,80,0,94.368,0,112v32h512v-32C512,94.368,497.664,80,480,80z"/>
	</g>
</g>
<g>
</g>
<g>
</g>
<g>
</g>
<g>
</g>
<g>
</g>
<g>
</g>
<g>
</g>
<g>
</g>
<g>
</g>
<g>
</g>
<g>
</g>
<g>
</g>
<g>
</g>
<g>
</g>
<g>
</g>
</svg>
