<?xml version="1.0" encoding="iso-8859-1"?>
<!-- Generator: Adobe Illustrator 16.0.0, SVG Export Plug-In . SVG Version: 6.00 Build 0)  -->
<!DOCTYPE svg PUBLIC "-//W3C//DTD SVG 1.1//EN" "http://www.w3.org/Graphics/SVG/1.1/DTD/svg11.dtd">
<svg version="1.1" id="Capa_1" xmlns="http://www.w3.org/2000/svg" xmlns:xlink="http://www.w3.org/1999/xlink" x="0px" y="0px"
	 width="399.633px" height="399.633px" viewBox="0 0 399.633 399.633" style="enable-background:new 0 0 399.633 399.633;"
	 xml:space="preserve">
<g>
	<g>
		<path d="M261.097,241.079c3.294,2.107,6.953,3.435,10.74,3.783c6.416,0.589,13.048-1.383,18.237-5.995
			c9.975-8.864,10.889-24.129,2.024-34.096l-9.481-10.669L383.712,93.004c21.228-21.222,21.228-55.627,0-76.849
			c-21.219-21.219-55.619-21.219-76.854,0l-96.562,96.563l-6.151-6.943c-8.867-9.971-24.135-10.874-34.105-2.016
			c-9.97,8.862-10.87,24.123-2.008,34.099L261.097,241.079z"/>
		<path d="M115.017,361.702L240.427,236.29l-54.146-59.618L72.608,292.65c-1.531,1.567-3.574,2.356-5.604,2.356
			c-1.985,0-3.965-0.753-5.498-2.248c-3.1-3.033-3.14-8.011-0.106-11.108l113.995-116.298c0.106-0.118,0.256-0.15,0.375-0.256
			l-8.494-9.353L38.162,284.848c-17.783,17.776-20.6,44.803-8.582,65.577L3.053,379.704c-4.374,4.812-4.001,12.259,0.817,16.635
			c2.254,2.04,5.08,3.054,7.905,3.054c3.204,0,6.396-1.303,8.724-3.871l25.072-27.684c9.304,6.476,20.144,9.767,31.01,9.767
			C90.501,377.612,104.411,372.306,115.017,361.702z"/>
	</g>
</g>
<g>
</g>
<g>
</g>
<g>
</g>
<g>
</g>
<g>
</g>
<g>
</g>
<g>
</g>
<g>
</g>
<g>
</g>
<g>
</g>
<g>
</g>
<g>
</g>
<g>
</g>
<g>
</g>
<g>
</g>
</svg>
