<svg id="Capa_1" enable-background="new 0 0 512 512" height="512" viewBox="0 0 512 512" width="512" xmlns="http://www.w3.org/2000/svg"><g><path d="m151.27 228.885-11.27-22.836-11.27 22.836c-2.185 4.427-6.409 7.496-11.294 8.206l-25.201 3.662 18.236 17.776c3.535 3.446 5.148 8.411 4.314 13.277l-4.305 25.099 22.541-11.85c2.185-1.149 4.583-1.723 6.98-1.723s4.795.574 6.98 1.723l22.541 11.85-4.305-25.099c-.834-4.866.779-9.831 4.314-13.277l18.236-17.776-25.201-3.662c-4.887-.711-9.111-3.779-11.296-8.206z"/><path d="m497 141c-19.299 0-35-15.701-35-35 0-8.284-6.716-15-15-15h-137v30c0 8.284-6.716 15-15 15s-15-6.716-15-15v-30h-215c-8.284 0-15 6.716-15 15 0 19.299-15.701 35-35 35-8.284 0-15 6.716-15 15v200c0 8.284 6.716 15 15 15 19.299 0 35 15.701 35 35 0 8.284 6.716 15 15 15h215v-30c0-8.284 6.716-15 15-15s15 6.716 15 15v30h137c8.284 0 15-6.716 15-15 0-19.299 15.701-35 35-35 8.284 0 15-6.716 15-15v-200c0-8.284-6.716-15-15-15zm-266.53 100.02-34.353 33.486 8.11 47.283c.965 5.627-1.348 11.315-5.967 14.671-2.613 1.898-5.708 2.865-8.818 2.865-2.388 0-4.784-.569-6.979-1.723l-42.463-22.325-42.463 22.324c-5.053 2.657-11.177 2.214-15.797-1.142-4.619-3.356-6.933-9.043-5.967-14.671l8.11-47.283-34.353-33.485c-4.088-3.985-5.56-9.946-3.795-15.376 1.764-5.43 6.458-9.388 12.109-10.209l47.475-6.898 21.231-43.02c2.527-5.12 7.742-8.361 13.451-8.361s10.924 3.242 13.451 8.361l21.231 43.02 47.475 6.898c5.65.821 10.345 4.779 12.109 10.209 1.763 5.429.292 11.39-3.797 15.376zm79.53 79.98c0 8.284-6.716 15-15 15s-15-6.716-15-15v-30c0-8.284 6.716-15 15-15s15 6.716 15 15zm0-100c0 8.284-6.716 15-15 15s-15-6.716-15-15v-30c0-8.284 6.716-15 15-15s15 6.716 15 15zm142 110h-82c-8.284 0-15-6.716-15-15s6.716-15 15-15h82c8.284 0 15 6.716 15 15s-6.716 15-15 15zm0-60h-82c-8.284 0-15-6.716-15-15s6.716-15 15-15h82c8.284 0 15 6.716 15 15s-6.716 15-15 15zm0-60h-82c-8.284 0-15-6.716-15-15s6.716-15 15-15h82c8.284 0 15 6.716 15 15s-6.716 15-15 15z"/></g></svg>