<?xml version="1.0" encoding="iso-8859-1"?>
<!-- Generator: Adobe Illustrator 19.0.0, SVG Export Plug-In . SVG Version: 6.00 Build 0)  -->
<svg version="1.1" id="Capa_1" xmlns="http://www.w3.org/2000/svg" xmlns:xlink="http://www.w3.org/1999/xlink" x="0px" y="0px"
	 viewBox="0 0 512 512" style="enable-background:new 0 0 512 512;" xml:space="preserve">
<g>
	<g>
		<path d="M258.669,138.155L239.299,9.088C238.531,3.84,234.029,0,228.76,0c-0.107,0-0.235,0-0.363,0
			c-5.419,0.171-9.835,4.373-10.261,9.771l-9.344,112.064c-0.576,6.912-12.843,6.912-13.419,0L186.051,9.771
			C185.581,4.245,180.973,0,175.427,0c-5.547,0-10.176,4.245-10.624,9.771l-9.344,112.064c-0.576,6.912-12.843,6.912-13.419,0
			L132.717,9.771c-0.448-5.376-4.864-9.579-10.283-9.771c-0.128,0-0.235,0-0.341,0c-5.269,0-9.771,3.84-10.539,9.088L92.205,138.155
			c-5.696,37.824,14.827,74.005,49.429,89.088l-16.469,230.827c-0.981,13.888,3.883,27.691,13.376,37.888
			C148.013,506.155,161.432,512,175.384,512h0.085c13.931,0,27.371-5.845,36.864-16.043c9.493-10.197,14.357-24,13.376-37.888
			L209.24,227.243C243.843,212.16,264.365,175.979,258.669,138.155z"/>
	</g>
</g>
<g>
	<g>
		<path d="M416.237,1.963c-2.816-2.005-6.443-2.475-9.707-1.344c-0.917,0.32-92.437,33.941-92.437,138.048
			c0,74.944,24.384,112.789,38.101,128.149l-13.653,13.653c-1.749,1.749-2.837,4.032-3.072,6.485l-16.875,168.768
			c-1.451,14.357,3.264,28.736,12.949,39.445C341.229,505.877,355.117,512,369.539,512c28.224,0,51.2-22.976,51.2-51.2V10.667
			C420.76,7.189,419.075,3.968,416.237,1.963z"/>
	</g>
</g>
<g>
</g>
<g>
</g>
<g>
</g>
<g>
</g>
<g>
</g>
<g>
</g>
<g>
</g>
<g>
</g>
<g>
</g>
<g>
</g>
<g>
</g>
<g>
</g>
<g>
</g>
<g>
</g>
<g>
</g>
</svg>
