<svg id="Capa_1" enable-background="new 0 0 512 512" height="512" viewBox="0 0 512 512" width="512" xmlns="http://www.w3.org/2000/svg"><g><path d="m512 210.012-122 65v-65.012h-31.596c19.483-19.073 31.596-45.646 31.596-75 0-57.897-47.103-105-105-105-38.151 0-71.612 20.455-90 50.971-18.388-30.516-51.849-50.971-90-50.971-57.897 0-105 47.103-105 105 0 29.354 12.113 55.927 31.596 75h-31.596v272h390v-65.012l122 65zm-227-150.012c41.355 0 75 33.645 75 75s-33.645 75-75 75-75-33.645-75-75 33.645-75 75-75zm-73.404 150h-33.193c6.377-6.243 11.965-13.286 16.596-20.971 4.632 7.685 10.22 14.728 16.597 20.971zm-181.596-75c0-41.355 33.645-75 75-75s75 33.645 75 75-33.645 75-75 75-75-33.645-75-75zm330 317h-330v-212h330zm122-19.988-92-49.016v-73.992l92-49.016z"/><path d="m60 422h270v-152h-270zm30-122h210v92h-210z"/></g></svg>