<svg width="251" height="253" viewBox="0 0 251 253" fill="none" xmlns="http://www.w3.org/2000/svg">
<path d="M54.2593 33.831C39.7844 72.4309 16.3459 89.1642 2.00019 95.3124L2 252.09H247.926V79.942C238.704 86.0902 229.877 90.6025 211.037 95.3124C186.444 101.461 177.222 95.3124 161.852 83.0161C154.679 75.8433 137.874 60.8829 128.037 33.8311C114.623 -3.05786 69.2454 -6.13211 54.2593 33.831Z" fill="url(#paint0_linear)"/>
<path d="M2 95.3124C16.3457 89.1642 42.8584 72.4309 57.3333 33.831C72.3194 -6.13211 117.697 -3.05786 131.111 33.8311C140.948 60.8829 157.753 75.8433 164.926 83.0161C180.296 95.3124 189.519 101.461 214.111 95.3124C232.951 90.6025 238.704 88 247.926 81.8519" stroke="#FFA51D" stroke-width="9.22222"/>
<defs>
<linearGradient id="paint0_linear" x1="124.963" y1="5" x2="124.963" y2="252.09" gradientUnits="userSpaceOnUse">
<stop stop-color="#FFF3E1"/>
<stop offset="1" stop-color="white"/>
</linearGradient>
</defs>
</svg>
