<svg width="275" height="260" viewBox="0 0 275 260" fill="none" xmlns="http://www.w3.org/2000/svg">
<path d="M98.8081 43.913C87.7851 43.913 78.847 52.85 78.847 63.874V239.532C78.847 250.555 87.7841 259.493 98.8081 259.493H98.809C109.832 259.493 118.77 250.556 118.77 239.532L118.768 63.873C118.768 52.85 109.832 43.913 98.8081 43.913Z" fill="black"/>
<path d="M176.656 0C165.633 0 156.695 8.93698 156.695 19.961V239.532C156.695 250.555 165.632 259.493 176.656 259.493C187.68 259.493 196.617 250.556 196.617 239.532V19.96C196.616 8.93701 187.68 0 176.656 0Z" fill="black"/>
<path d="M20.029 133.739C8.979 133.701 0 142.649 0 153.7V239.532C0 250.555 8.937 259.493 19.961 259.493H19.962C30.986 259.493 39.923 250.556 39.923 239.532V153.7C39.922 142.702 31.028 133.776 20.029 133.739Z" fill="black"/>
<path d="M254.503 24.951C243.479 24.951 234.542 33.888 234.542 44.912V239.532C234.542 250.555 243.479 259.493 254.503 259.493H254.504C265.527 259.493 274.465 250.556 274.465 239.532V44.912C274.464 33.888 265.528 24.951 254.503 24.951Z" fill="black"/>
</svg>
