<svg xmlns="http://www.w3.org/2000/svg" height="512pt" version="1.1" viewBox="0 -51 512 512" width="512pt">
<g id="surface1">
<path d="M 69.832031 45.5 L 120.832031 45.5 L 120.832031 75.5 L 69.832031 75.5 Z M 69.832031 45.5 " style=" stroke:none;fill-rule:nonzero;fill:rgb(0%,0%,0%);fill-opacity:1;" />
<path d="M 69.832031 96.5 L 120.832031 96.5 L 120.832031 126.5 L 69.832031 126.5 Z M 69.832031 96.5 " style=" stroke:none;fill-rule:nonzero;fill:rgb(0%,0%,0%);fill-opacity:1;" />
<path d="M 230.5 45.5 L 281.5 45.5 L 281.5 75.5 L 230.5 75.5 Z M 230.5 45.5 " style=" stroke:none;fill-rule:nonzero;fill:rgb(0%,0%,0%);fill-opacity:1;" />
<path d="M 230.5 96.5 L 281.5 96.5 L 281.5 126.5 L 230.5 126.5 Z M 230.5 96.5 " style=" stroke:none;fill-rule:nonzero;fill:rgb(0%,0%,0%);fill-opacity:1;" />
<path d="M 0 0 C 0 121.003906 0 289.332031 0 410 L 512 410 C 512 387.847656 512 23.390625 512 0 C 495.519531 0 11.972656 0 0 0 Z M 190.667969 30 L 321.335938 30 L 321.335938 142 L 190.667969 142 Z M 30 30 L 160.667969 30 L 160.667969 142 L 30 142 Z M 482 380 L 30 380 L 30 172 C 75.621094 172 436.519531 172 482 172 Z M 351.332031 142 L 351.332031 30 L 482 30 L 482 142 Z M 351.332031 142 " style=" stroke:none;fill-rule:nonzero;fill:rgb(0%,0%,0%);fill-opacity:1;" />
<path d="M 391.167969 45.5 L 442.167969 45.5 L 442.167969 75.5 L 391.167969 75.5 Z M 391.167969 45.5 " style=" stroke:none;fill-rule:nonzero;fill:rgb(0%,0%,0%);fill-opacity:1;" />
<path d="M 391.167969 96.5 L 442.167969 96.5 L 442.167969 126.5 L 391.167969 126.5 Z M 391.167969 96.5 " style=" stroke:none;fill-rule:nonzero;fill:rgb(0%,0%,0%);fill-opacity:1;" />
<path d="M 270.125 221.578125 L 191.960938 299.742188 L 156.042969 263.828125 L 85.9375 333.933594 L 107.148438 355.148438 L 156.042969 306.253906 L 191.960938 342.171875 L 270.125 264.003906 L 325.125 319.003906 L 426.0625 218.066406 L 404.851562 196.851562 L 325.125 276.578125 Z M 270.125 221.578125 " style=" stroke:none;fill-rule:nonzero;fill:rgb(0%,0%,0%);fill-opacity:1;" />
</g>
</svg>