<?xml version="1.0" encoding="iso-8859-1"?>
<!-- Generator: Adobe Illustrator 19.0.0, SVG Export Plug-In . SVG Version: 6.00 Build 0)  -->
<svg version="1.1" id="Capa_1" xmlns="http://www.w3.org/2000/svg" xmlns:xlink="http://www.w3.org/1999/xlink" x="0px" y="0px"
	 viewBox="0 0 509.248 509.248" style="enable-background:new 0 0 509.248 509.248;" xml:space="preserve">
<g>
	<g>
		<g>
			<rect x="89.919" y="155.316" transform="matrix(0.7071 0.7071 -0.7071 0.7071 152.1617 -24.7188)" width="32" height="32"/>
			<rect x="135.167" y="109.959" transform="matrix(0.7071 0.7071 -0.7071 0.7071 133.3421 -69.9989)" width="32" height="32"/>
			<polygon points="254.6,45.248 403.288,193.936 425.912,171.312 254.6,0 173.8,80.8 196.424,103.424 			"/>
			<rect x="387.332" y="322.03" transform="matrix(0.7071 -0.7071 0.7071 0.7071 -120.8899 384.2062)" width="32" height="32"/>
			<polygon points="254.6,464 105.912,315.312 83.288,337.936 254.6,509.248 335.4,428.448 312.776,405.824 			"/>
			<rect x="342.079" y="367.254" transform="matrix(-0.7071 -0.7071 0.7071 -0.7071 340.2787 907.4568)" width="32" height="32"/>
		</g>
	</g>
</g>
<g>
</g>
<g>
</g>
<g>
</g>
<g>
</g>
<g>
</g>
<g>
</g>
<g>
</g>
<g>
</g>
<g>
</g>
<g>
</g>
<g>
</g>
<g>
</g>
<g>
</g>
<g>
</g>
<g>
</g>
</svg>
