<svg id="Layer_1" enable-background="new 0 0 512 512" height="512" viewBox="0 0 512 512" width="512" xmlns="http://www.w3.org/2000/svg"><path d="m512 255.733c.081-68.359-26.475-132.597-74.779-180.881-48.232-48.213-112.367-74.749-180.641-74.749h-.312c-68.373.081-132.684 26.77-181.085 75.152-.239.238-.468.483-.706.723-.059.057-.122.105-.18.163-.095.095-.175.198-.267.295-47.665 48.245-73.95 112.036-74.03 179.831-.081 68.103 26.284 132.111 74.244 180.332.044.045.08.093.124.138.027.027.057.049.084.076.11.11.216.224.327.334 48.232 48.212 112.367 74.749 180.641 74.749.1 0 .212 0 .312-.001 67.823-.08 131.64-26.354 179.905-74 .096-.092.2-.172.294-.266.058-.058.106-.122.163-.18.239-.237.484-.467.723-.705 48.402-48.382 75.102-112.666 75.183-181.011zm-86.963 149.824-61.096-61.071c41.201-51.019 41.321-124.412.364-175.564l61.965-61.941c36.122 41.151 55.826 93.4 55.761 148.716-.066 55.765-20.215 108.46-56.994 149.86zm-248.35-71.096c-43.019-43.002-43.019-112.97 0-155.972 21.51-21.5 49.764-32.251 78.017-32.251s56.508 10.751 78.017 32.251c43.019 43.001 43.019 112.969 0 155.972-43.018 43-113.016 43.002-156.034 0zm79.616-304.401h.276c55.236 0 107.402 19.69 148.501 55.738l-61.868 61.844c-24.945-20.348-55.874-31.413-88.507-31.413-32.435 0-63.185 10.935-88.051 31.048l-60.271-60.246c41.416-36.764 94.133-56.905 149.92-56.971zm-171.004 78.261 60.168 60.143c-41.324 51.17-41.324 124.85 0 176.021l-60.123 60.098c-35.878-41.084-55.44-93.159-55.375-148.28.065-54.922 19.603-106.873 55.33-147.982zm170.397 373.618c-.092.001-.183.001-.275.001-55.433 0-107.771-19.832-148.936-56.124l60.168-60.143c24.866 20.113 55.616 31.048 88.051 31.048s63.185-10.935 88.051-31.048l60.983 60.958c-41.125 35.713-93.097 55.243-148.042 55.308z"/></svg>