<svg id="Capa_1" enable-background="new 0 0 512 512" height="512" viewBox="0 0 512 512" width="512" xmlns="http://www.w3.org/2000/svg"><g><path d="m512 280c0-18.684-10.96-34.854-26.788-42.424l-10.781-53.902c-3.394-16.964-16.43-30.636-33.212-34.83l-20.355-5.089c6.373-8.978 10.136-19.932 10.136-31.755v-40c0-30.327-24.673-55-55-55s-55 24.673-55 55v40c0 11.823 3.763 22.777 10.135 31.755l-20.355 5.089c-16.782 4.194-29.818 17.866-33.213 34.831l-9.864 49.325h-23.406l-9.865-49.326c-3.394-16.964-16.43-30.636-33.212-34.83l-20.355-5.089c6.372-8.978 10.135-19.932 10.135-31.755v-40c0-30.327-24.673-55-55-55s-55 24.673-55 55v40c0 11.823 3.763 22.777 10.135 31.755l-20.355 5.089c-16.782 4.194-29.818 17.866-33.213 34.831l-10.78 53.901c-15.827 7.571-26.787 23.74-26.787 42.424 0 17.971 10.143 33.611 25 41.516v158.484c0 8.284 6.716 15 15 15h432c8.284 0 15-6.716 15-15v-158.484c14.857-7.905 25-23.545 25-41.516zm-482 0c0-9.374 7.626-17 17-17h418c9.374 0 17 7.626 17 17s-7.626 17-17 17h-418c-9.374 0-17-7.626-17-17zm321-208c0-13.785 11.215-25 25-25s25 11.215 25 25v40c0 13.785-11.215 25-25 25s-25-11.215-25-25zm-44.015 117.559c1.131-5.655 5.477-10.213 11.07-11.611l43.792-10.948h28.307l43.791 10.947c5.594 1.398 9.939 5.956 11.07 11.61l8.688 43.443h-62.703v-25c0-8.284-6.716-15-15-15s-15 6.716-15 15v25h-62.703zm-195.985-117.559c0-13.785 11.215-25 25-25s25 11.215 25 25v40c0 13.785-11.215 25-25 25s-25-11.215-25-25zm-44.015 117.559c1.131-5.655 5.477-10.213 11.07-11.611l43.792-10.948h28.307l43.791 10.947c5.594 1.398 9.939 5.956 11.07 11.61l8.688 43.443h-62.703v-25c0-8.284-6.716-15-15-15s-15 6.716-15 15v25h-62.703zm190.911 194.388c8.598 11.083 26.776 39.064 30.435 81.053h-64.663c3.659-41.989 21.837-69.971 30.435-81.053.983-1.267 2.817-1.258 3.793 0zm-64.343 81.053h-46.255c9.675-34.027 34.826-61.175 66.95-73.984-9.314 17.967-18.409 42.869-20.695 73.984zm124.894 0c-2.286-31.115-11.381-56.017-20.695-73.984 32.124 12.809 57.275 39.957 66.95 73.984zm138.553 0h-61.371c-14.295-64.705-72.132-112-139.629-112s-125.334 47.295-139.629 112h-61.371v-138h402z"/><path d="m96 383h24c8.284 0 15-6.716 15-15s-6.716-15-15-15h-24c-8.284 0-15 6.716-15 15s6.716 15 15 15z"/><path d="m392 383h24c8.284 0 15-6.716 15-15s-6.716-15-15-15h-24c-8.284 0-15 6.716-15 15s6.716 15 15 15z"/></g></svg>