<svg height="511pt" viewBox="0 -54 511.99985 511" width="511pt" xmlns="http://www.w3.org/2000/svg"><path d="m502.992188 246.445312c-10.679688-12.746093-28.238282-17.179687-43.6875-11.035156l-78.527344 31.242188c-9.910156 3.945312-20.96875 4.359375-31.148438 1.175781l-120.597656-37.8125c-7.207031-2.261719-14.691406-3.40625-22.246094-3.40625h-39.222656c-2.210938-4.191406-6.605469-7.058594-11.664062-7.058594h-27.09375v-.304687c0-7.410156-6.027344-13.441406-13.441407-13.441406h-101.921875c-7.410156 0-13.441406 6.03125-13.441406 13.441406v157.09375c0 7.410156 6.03125 13.441406 13.441406 13.441406h101.925782c7.410156 0 13.441406-6.03125 13.441406-13.441406v-.304688h27.089844c5.007812 0 9.371093-2.804687 11.601562-6.921875 37.792969 21.433594 102.632812 29.84375 140.078125 33.019531 3.617187.304688 7.25.457032 10.878906.457032 15.542969 0 31.050781-2.796875 45.398438-8.234375 16.917969-6.414063 34.34375-15.199219 51.792969-26.117188 3.515624-2.195312 4.578124-6.824219 2.382812-10.339843-2.199219-3.511719-6.828125-4.578126-10.339844-2.378907-16.617187 10.394531-33.15625 18.738281-49.152344 24.804688-15.613281 5.917969-32.796874 8.285156-49.695312 6.855469-88.332031-7.496094-125.835938-25.4375-139.757812-34.730469v-110.835938h37.699218c6.027344 0 12.003906.914063 17.757813 2.71875l120.5625 37.804688.140625.042969c.003906 0 .113281.035156.113281.035156 8.367187 2.585937 13.542969 10.898437 12.042969 19.335937l-.175782.988281c-1.542968 8.652344-9.59375 14.792969-18.355468 13.964844l-99.730469-9.371094c-4.105469-.386718-7.78125 2.644532-8.171875 6.769532-.386719 4.125 2.644531 7.785156 6.769531 8.171875l99.730469 9.371093c.992188.09375 1.980469.140626 2.960938.140626 15.289062 0 28.84375-11.117188 31.566406-26.417969l.179687-.988281c1.214844-6.835938.117188-13.625-2.761719-19.519532 5.769532-.550781 11.472657-1.898437 16.910157-4.0625l78.527343-31.242187c9.421876-3.75 20.128907-1.046875 26.640626 6.726562 7.730468 9.222657 7.25 22.703125-1.113282 31.359375-11.992187 12.417969-31.246094 30.96875-54.859375 48.839844-3.304687 2.5-3.953125 7.207031-1.453125 10.507812 2.5 3.304688 7.203125 3.957032 10.507813 1.457032 24.378906-18.449219 44.234375-37.578125 56.597656-50.378906 13.710937-14.195313 14.492187-36.300782 1.820313-51.421876zm-389.191407-19.390624v147.722656h-98.796875v-153.96875h98.796875zm40.28125 129.269531v4.703125h-25.277343v-126.472656h25.277343zm0 0"/><path d="m355.175781 234.554688c64.527344 0 117.027344-52.496094 117.027344-117.027344s-52.5-117.027344-117.027344-117.027344c-64.53125 0-117.027343 52.5-117.027343 117.027344 0 64.53125 52.496093 117.027344 117.027343 117.027344zm0-219.050782c56.253907 0 102.023438 45.769532 102.023438 102.023438 0 56.257812-45.765625 102.023437-102.023438 102.023437-56.257812 0-102.023437-45.765625-102.023437-102.023437 0-56.257813 45.769531-102.023438 102.023437-102.023438zm0 0"/><path d="m355.175781 69.933594c-4.144531 0-7.503906 3.359375-7.503906 7.503906v3.726562c-4.609375 1.621094-8.507813 4.660157-10.984375 8.710938-5.410156 8.855469-3.886719 19.808594 3.703125 26.644531 3.539063 3.1875 7.347656 5.378907 11.027344 7.5 3.152343 1.816407 6.128906 3.53125 8.5 5.667969 2.238281 2.015625 2.601562 4.957031.941406 7.671875-.988281 1.613281-3.09375 2.703125-5.492187 2.84375-1.601563.089844-3.722657-.820313-5.058594-2.175781-.441406-.449219-1.175782-1.335938-1.113282-2.226563.300782-4.132812-2.808593-7.722656-6.941406-8.023437-4.132812-.292969-7.726562 2.808594-8.023437 6.941406-.363281 5.03125 1.554687 9.949219 5.398437 13.84375 2.257813 2.292969 5.054688 4.074219 8.042969 5.214844v3.84375c0 4.140625 3.359375 7.5 7.503906 7.5s7.503907-3.359375 7.503907-7.5v-3.730469c4.609374-1.621094 8.507812-4.660156 10.984374-8.710937 5.40625-8.851563 3.882813-19.808594-3.703124-26.644532-3.550782-3.195312-7.363282-5.394531-11.054688-7.515625-3.144531-1.8125-6.113281-3.523437-8.476562-5.652343-2.238282-2.015626-2.597657-4.953126-.9375-7.667969.984374-1.617188 3.089843-2.707031 5.492187-2.84375 1.605469-.097657 3.71875.820312 5.054687 2.171875.441407.449218 1.179688 1.335937 1.113282 2.226562-.300782 4.132813 2.808594 7.726563 6.941406 8.023438 4.132812.292968 7.726562-2.808594 8.023438-6.941406.363281-5.03125-1.550782-9.945313-5.394532-13.84375-2.261718-2.289063-5.058594-4.066407-8.046875-5.207032v-3.847656c.003907-4.144531-3.355469-7.503906-7.5-7.503906zm0 0"/><path d="m355.175781 195.460938c42.972657 0 77.929688-34.960938 77.929688-77.933594s-34.957031-77.929688-77.929688-77.929688c-10.535156 0-20.757812 2.066406-30.386719 6.148438-3.8125 1.613281-5.59375 6.019531-3.980468 9.832031 1.617187 3.816406 6.023437 5.597656 9.835937 3.980469 7.765625-3.289063 16.015625-4.957032 24.53125-4.957032 34.695313 0 62.925781 28.226563 62.925781 62.925782 0 34.699218-28.230468 62.925781-62.925781 62.925781-34.699219 0-62.929687-28.226563-62.929687-62.925781 0-14.332032 4.691406-27.828125 13.570312-39.035156 2.574219-3.25 2.023438-7.96875-1.222656-10.539063-3.25-2.574219-7.964844-2.027344-10.539062 1.222656-11 13.882813-16.8125 30.605469-16.8125 48.351563.003906 42.972656 34.960937 77.933594 77.933593 77.933594zm0 0"/></svg>