<?xml version="1.0" encoding="iso-8859-1"?>
<!-- Generator: Adobe Illustrator 19.0.0, SVG Export Plug-In . SVG Version: 6.00 Build 0)  -->
<svg version="1.1" id="Capa_1" xmlns="http://www.w3.org/2000/svg" xmlns:xlink="http://www.w3.org/1999/xlink" x="0px" y="0px"
	 viewBox="0 0 512 512" style="enable-background:new 0 0 512 512;" xml:space="preserve">
<g>
	<g>
		<path d="M497,0H15C6.716,0,0,6.716,0,15v385.601c0,8.284,6.716,15,15,15h81.4V497c0,6.067,3.655,11.537,9.26,13.858
			c1.856,0.769,3.805,1.142,5.737,1.142c3.904,0,7.741-1.524,10.61-4.394l92.006-92.006H497c8.284,0,15-6.716,15-15V15
			C512,6.716,505.284,0,497,0z M482,385.601H207.8c-3.978,0-7.794,1.581-10.606,4.394l-70.793,70.792v-60.186
			c0-8.284-6.716-15-15-15H30V30h452V385.601z"/>
	</g>
</g>
<g>
	<g>
		<path d="M170.21,197.19c-2.8-2.79-6.66-4.39-10.61-4.39c-3.95,0-7.81,1.6-10.61,4.39c-2.79,2.8-4.39,6.66-4.39,10.61
			s1.6,7.82,4.39,10.61c2.8,2.79,6.66,4.39,10.61,4.39c3.95,0,7.81-1.6,10.61-4.39c2.79-2.8,4.39-6.66,4.39-10.61
			S173,199.99,170.21,197.19z"/>
	</g>
</g>
<g>
	<g>
		<path d="M266.609,197.19c-2.8-2.79-6.659-4.39-10.609-4.39s-7.82,1.6-10.61,4.39c-2.79,2.8-4.39,6.66-4.39,10.61
			s1.6,7.81,4.39,10.61c2.79,2.79,6.66,4.39,10.61,4.39s7.81-1.6,10.609-4.39c2.79-2.8,4.391-6.66,4.391-10.61
			S269.399,199.99,266.609,197.19z"/>
	</g>
</g>
<g>
	<g>
		<path d="M363.01,197.19c-2.8-2.79-6.66-4.39-10.61-4.39c-3.949,0-7.81,1.6-10.609,4.39c-2.79,2.8-4.391,6.66-4.391,10.61
			s1.601,7.82,4.391,10.61c2.799,2.79,6.659,4.39,10.609,4.39s7.82-1.6,10.61-4.39c2.79-2.8,4.39-6.66,4.39-10.61
			S365.8,199.99,363.01,197.19z"/>
	</g>
</g>
<g>
</g>
<g>
</g>
<g>
</g>
<g>
</g>
<g>
</g>
<g>
</g>
<g>
</g>
<g>
</g>
<g>
</g>
<g>
</g>
<g>
</g>
<g>
</g>
<g>
</g>
<g>
</g>
<g>
</g>
</svg>
