<?xml version="1.0" encoding="iso-8859-1"?>
<!-- Generator: Adobe Illustrator 19.0.0, SVG Export Plug-In . SVG Version: 6.00 Build 0)  -->
<svg version="1.1" id="Capa_1" xmlns="http://www.w3.org/2000/svg" xmlns:xlink="http://www.w3.org/1999/xlink" x="0px" y="0px"
	 viewBox="0 0 512 512" style="enable-background:new 0 0 512 512;" xml:space="preserve">
<g>
	<g>
		<path d="M466.271,21.333L256,21.354L45.729,21.333C20.521,21.333,0,41.979,0,67.375c0,6.938,1.583,13.667,4.688,20
			c34.083,69.958,91.25,169.167,141.688,256.708c26.354,45.75,51.25,88.958,69.25,121.792c8.521,15.521,23.604,24.792,40.396,24.792
			c16.771,0,31.854-9.271,40.375-24.792c17.979-32.813,42.854-76,69.188-121.708c50.458-87.563,107.625-186.813,141.729-256.75
			C510.417,81.063,512,74.313,512,67.375C512,41.979,491.479,21.333,466.271,21.333z"/>
	</g>
</g>
<g>
</g>
<g>
</g>
<g>
</g>
<g>
</g>
<g>
</g>
<g>
</g>
<g>
</g>
<g>
</g>
<g>
</g>
<g>
</g>
<g>
</g>
<g>
</g>
<g>
</g>
<g>
</g>
<g>
</g>
</svg>
