<svg height="512pt" viewBox="-6 0 512 512" width="512pt" xmlns="http://www.w3.org/2000/svg"><path d="m227.65625 357.507812c2.835938 2.832032 6.679688 4.425782 10.691406 4.425782 4.007813 0 7.851563-1.589844 10.6875-4.425782l53.972656-53.972656c5.90625-5.90625 5.90625-15.476562 0-21.382812-5.902343-5.902344-15.476562-5.902344-21.378906 0l-43.28125 43.28125-19.734375-19.734375c-5.90625-5.902344-15.476562-5.902344-21.382812 0-5.902344 5.902343-5.902344 15.476562 0 21.382812zm0 0"/><path d="m250.121094 439.84375c66.175781 0 120.011718-53.839844 120.011718-120.015625s-53.835937-120.011719-120.011718-120.011719c-66.179688 0-120.015625 53.835938-120.015625 120.011719s53.839843 120.015625 120.015625 120.015625zm0-209.792969c49.503906 0 89.777344 40.273438 89.777344 89.777344s-40.273438 89.78125-89.777344 89.78125-89.78125-40.277344-89.78125-89.78125 40.277344-89.777344 89.78125-89.777344zm0 0"/><path d="m451.34375 32.191406h-27.574219v-17.074218c0-8.347657-6.769531-15.117188-15.117187-15.117188s-15.117188 6.769531-15.117188 15.117188v17.074218h-29.707031v-17.074218c0-8.347657-6.769531-15.117188-15.121094-15.117188-8.347656 0-15.117187 6.769531-15.117187 15.117188v17.074218h-166.9375v-17.074218c0-8.347657-6.769532-15.117188-15.121094-15.117188-8.347656 0-15.117188 6.769531-15.117188 15.117188v17.074218h-29.707031v-17.074218c0-8.347657-6.769531-15.117188-15.121093-15.117188-8.347657 0-15.117188 6.769531-15.117188 15.117188v17.074218h-27.578125c-26.957031 0-48.890625 21.933594-48.890625 48.894532v382.023437c0 26.957031 21.933594 48.890625 48.890625 48.890625h402.453125c26.960938 0 48.890625-21.933594 48.890625-48.890625v-382.023437c0-26.960938-21.933594-48.894532-48.890625-48.894532zm18.652344 430.917969c0 10.285156-8.367188 18.65625-18.652344 18.65625h-402.453125c-10.285156 0-18.65625-8.371094-18.65625-18.65625v-305.210937h439.761719zm-439.761719-382.023437c0-10.289063 8.371094-18.65625 18.65625-18.65625h27.578125v17.074218c0 8.347656 6.769531 15.117188 15.121094 15.117188 8.347656 0 15.117187-6.769532 15.117187-15.117188v-17.074218h29.707031v17.074218c0 8.347656 6.769532 15.117188 15.121094 15.117188 8.347656 0 15.117188-6.769532 15.117188-15.117188v-17.074218h166.9375v17.074218c0 8.347656 6.769531 15.117188 15.121094 15.117188 8.347656 0 15.117187-6.769532 15.117187-15.117188v-17.074218h29.707031v17.074218c0 8.347656 6.769532 15.117188 15.117188 15.117188 8.351562 0 15.121094-6.769532 15.121094-15.117188v-17.074218h27.570312c10.285156 0 18.65625 8.367187 18.65625 18.65625v46.574218h-439.765625zm0 0"/></svg>