<?xml version="1.0"?>
<svg xmlns="http://www.w3.org/2000/svg" viewBox="0 0 64 64" width="512" height="512"><g id="Layer_5" data-name="Layer 5"><path d="M62,11a1,1,0,0,0,1-1V6a1,1,0,0,0-1-1H36.9a5,5,0,0,0-9.8,0H2A1,1,0,0,0,1,6v4a1,1,0,0,0,1,1H3V43H2a1,1,0,0,0-1,1v4a1,1,0,0,0,1,1H27.1A5,5,0,0,0,31,52.9v4.28a3,3,0,1,0,2,0V52.9A5,5,0,0,0,36.9,49H62a1,1,0,0,0,1-1V44a1,1,0,0,0-1-1H61V11ZM32,3a3,3,0,0,1,2.82,2H29.18A3,3,0,0,1,32,3ZM3,7H61V9H3ZM32,61a1,1,0,1,1,1-1A1,1,0,0,1,32,61Zm0-10a3,3,0,0,1-2.82-2h5.64A3,3,0,0,1,32,51Zm29-4H3V45H61Zm-2-4H5V11H59Z"/><path d="M32,39A12,12,0,1,0,20,27,12,12,0,0,0,32,39Zm0-22A10,10,0,1,1,22,27,10,10,0,0,1,32,17Z"/><path d="M28.55,33.89A.91.91,0,0,0,29,34a1,1,0,0,0,.6-.2l8-6a1,1,0,0,0,0-1.6l-8-6a1,1,0,0,0-1.05-.09A1,1,0,0,0,28,21V33A1,1,0,0,0,28.55,33.89ZM30,23l5.33,4L30,31Z"/></g></svg>
