<svg width="256" height="230" viewBox="0 0 256 230" fill="none" xmlns="http://www.w3.org/2000/svg">
<path d="M66.7408 73.148C37.2297 95.2814 13.4569 143.852 5.25934 165.37V229.926H251.185V2.44434C223.519 57.7777 220.445 60.8518 195.852 91.5925C176.178 116.185 150.766 103.889 140.519 94.6666L122.074 76.2221C112.852 66.9999 96.2519 51.0147 66.7408 73.148Z" fill="url(#paint0_linear)"/>
<path d="M5.25934 165.37C13.4569 143.852 37.2297 95.2814 66.7408 73.148C96.2519 51.0147 112.852 66.9999 122.074 76.2221L140.519 94.6666C150.766 103.889 176.178 116.185 195.852 91.5925C220.445 60.8518 223.519 57.7777 251.185 2.44434" stroke="#4D54F9" stroke-width="9.22222"/>
<defs>
<linearGradient id="paint0_linear" x1="128.222" y1="2.44434" x2="128.222" y2="229.926" gradientUnits="userSpaceOnUse">
<stop stop-color="#E5E6FD"/>
<stop offset="1" stop-color="white"/>
</linearGradient>
</defs>
</svg>
