<?xml version="1.0" encoding="iso-8859-1"?>
<!-- Generator: Adobe Illustrator 19.0.0, SVG Export Plug-In . SVG Version: 6.00 Build 0)  -->
<svg version="1.1" id="Capa_1" xmlns="http://www.w3.org/2000/svg" xmlns:xlink="http://www.w3.org/1999/xlink" x="0px" y="0px"
	 viewBox="0 0 477.867 477.867" style="enable-background:new 0 0 477.867 477.867;" xml:space="preserve">
<g>
	<g>
		<path d="M119.467,187.733h-102.4C7.641,187.733,0,195.374,0,204.8v256c0,9.426,7.641,17.067,17.067,17.067h102.4
			c9.426,0,17.067-7.641,17.067-17.067v-256C136.533,195.374,128.892,187.733,119.467,187.733z M102.4,443.733H34.133V221.867H102.4
			V443.733z"/>
	</g>
</g>
<g>
	<g>
		<path d="M290.133,0h-102.4c-9.426,0-17.067,7.641-17.067,17.067V460.8c0,9.426,7.641,17.067,17.067,17.067h102.4
			c9.426,0,17.067-7.641,17.067-17.067V17.067C307.2,7.641,299.559,0,290.133,0z M273.067,443.733H204.8v-409.6h68.267V443.733z"/>
	</g>
</g>
<g>
	<g>
		<path d="M460.8,136.533H358.4c-9.426,0-17.067,7.641-17.067,17.067v307.2c0,9.426,7.641,17.067,17.067,17.067h102.4
			c9.426,0,17.067-7.641,17.067-17.067V153.6C477.867,144.174,470.226,136.533,460.8,136.533z M443.733,443.733h-68.267V170.667
			h68.267V443.733z"/>
	</g>
</g>
<g>
</g>
<g>
</g>
<g>
</g>
<g>
</g>
<g>
</g>
<g>
</g>
<g>
</g>
<g>
</g>
<g>
</g>
<g>
</g>
<g>
</g>
<g>
</g>
<g>
</g>
<g>
</g>
<g>
</g>
</svg>
