<svg width="1059" height="1199" viewBox="0 0 1059 1199" fill="none" xmlns="http://www.w3.org/2000/svg">
<path d="M9.46858 224.675L234.143 18.7228C249.121 4.99293 265.348 13.002 271.589 18.7228C327.758 68.6505 447.584 179.74 477.541 224.675C507.498 269.609 465.059 293.325 440.095 299.566H309.035V1198.26H177.975V299.566H46.9143C-12.9989 299.566 -3.01334 249.638 9.46858 224.675Z" fill="white"/>
<path d="M1049.53 973.59L824.857 1179.54C809.879 1193.27 793.652 1185.26 787.411 1179.54C731.243 1129.61 611.416 1018.52 581.46 973.59C551.503 928.655 593.941 904.939 618.905 898.699H749.965L749.965 0H881.026L881.026 898.699H1012.09C1072 898.699 1062.01 948.626 1049.53 973.59Z" fill="white"/>
</svg>
