<?xml version="1.0" encoding="iso-8859-1"?>
<!-- Generator: Adobe Illustrator 19.0.0, SVG Export Plug-In . SVG Version: 6.00 Build 0)  -->
<svg version="1.1" id="Capa_1" xmlns="http://www.w3.org/2000/svg" xmlns:xlink="http://www.w3.org/1999/xlink" x="0px" y="0px"
	 viewBox="0 0 512 512" style="enable-background:new 0 0 512 512;" xml:space="preserve">
<g>
	<g>
		<path d="M366.587,110.582c-10.124,0-18.329,8.205-18.329,18.329s8.205,18.329,18.329,18.329
			c59.968,0,108.754,48.787,108.754,108.754c0,59.974-48.793,108.76-108.754,108.76H232.172c-10.124,0-18.329,8.205-18.329,18.329
			s8.205,18.329,18.329,18.329h134.415c80.179,0,145.413-65.234,145.413-145.419C512,175.816,446.766,110.582,366.587,110.582z"/>
	</g>
</g>
<g>
	<g>
		<path d="M256.348,383.041l70.391-82.122c6.592-7.68,5.7-19.252-1.986-25.838c-7.674-6.586-19.252-5.713-25.838,1.986
			l-80.655,94.091c-5.902,6.88-5.884,17.04,0.037,23.901l80.649,93.48c3.623,4.197,8.737,6.354,13.881,6.354
			c4.246,0,8.505-1.46,11.969-4.454c7.662-6.611,8.517-18.183,1.906-25.851L256.348,383.041z"/>
	</g>
</g>
<g>
	<g>
		<path d="M279.828,110.582H145.413C65.234,110.582,0,175.816,0,255.994c0,80.185,65.234,145.419,145.413,145.419
			c10.124,0,18.329-8.205,18.329-18.329c0-10.124-8.205-18.329-18.329-18.329c-59.968,0-108.754-48.787-108.754-108.76
			c0-59.968,48.787-108.754,108.754-108.754h134.415c10.124,0,18.329-8.205,18.329-18.329S289.952,110.582,279.828,110.582z"/>
	</g>
</g>
<g>
	<g>
		<path d="M293.71,116.942l-80.649-93.48c-6.605-7.662-18.189-8.517-25.851-1.906c-7.668,6.617-8.523,18.189-1.906,25.851
			l70.348,81.547l-70.391,82.128c-6.586,7.686-5.694,19.258,1.992,25.844c3.458,2.963,7.698,4.411,11.92,4.411
			c5.163,0,10.301-2.175,13.93-6.403l80.643-94.091C299.648,133.964,299.63,123.803,293.71,116.942z"/>
	</g>
</g>
<g>
</g>
<g>
</g>
<g>
</g>
<g>
</g>
<g>
</g>
<g>
</g>
<g>
</g>
<g>
</g>
<g>
</g>
<g>
</g>
<g>
</g>
<g>
</g>
<g>
</g>
<g>
</g>
<g>
</g>
</svg>
