<svg width="286" height="92" viewBox="0 0 286 92" fill="none" xmlns="http://www.w3.org/2000/svg">
<path d="M0 67.5C9.61136 63.5 32.4337 62.6235 57.6682 70.5C91.3079 81 104.524 49 122.545 33.5C122.545 33.5 131.556 28 150.778 28C157.413 28 165.796 58 176.008 27.5C176.609 25 190.425 27.5 204.842 16C210.249 16 219.98 27.5 225.266 27.5C231.874 27.5 225.867 54 237.281 53.5C248.694 53 264.312 35.5 263.712 27.5C263.111 19.5 265.514 6.99997 276.327 8.99997C281.805 10.0132 284.038 7.60431 284.737 4.77002V0C285.03 1.34467 285.141 3.12867 284.737 4.77002V91.5H0V67.5Z" fill="url(#paint0_linear)"/>
<path d="M0 66.6817C9.01065 66.6817 37.2394 61.3054 62.4739 69.1819C96.1136 79.6819 109.329 47.6819 127.351 32.1819C127.351 32.1819 136.361 26.6819 155.584 26.6819C162.219 26.6819 170.602 56.6819 180.814 26.1818C181.414 23.6818 195.231 26.1819 209.648 14.6818C215.054 14.6818 224.786 26.1818 230.072 26.1818C236.68 26.1818 230.673 52.6819 242.086 52.1819C253.5 51.6819 269.118 34.1818 268.517 26.1818C267.917 18.1818 280.532 5 284.737 5" stroke="url(#paint1_radial)" stroke-width="10"/>
<defs>
<linearGradient id="paint0_linear" x1="142.5" y1="0" x2="142.5" y2="91.5" gradientUnits="userSpaceOnUse">
<stop stop-color="#525558"/>
<stop offset="1" stop-color="#3B3F43" stop-opacity="0"/>
</linearGradient>
<radialGradient id="paint1_radial" cx="0" cy="0" r="1" gradientUnits="userSpaceOnUse" gradientTransform="translate(142.068 38.128) rotate(-2.27201) scale(149.995 445.955)">
<stop stop-color="#01A4F6"/>
<stop offset="1" stop-color="#2F3438"/>
</radialGradient>
</defs>
</svg>
