<svg id="outline" enable-background="new 0 0 512 512" height="512" viewBox="0 0 512 512" width="512" xmlns="http://www.w3.org/2000/svg"><g id="XMLID_1_"><path d="m496 40v432c-.02 13.25-10.75 23.98-24 24h-432c-13.25-.02-23.98-10.75-24-24v-432c.02-13.25 10.75-23.98 24-24h432c13.25.02 23.98 10.75 24 24zm-16 432v-432c-.01-4.42-3.58-7.99-8-8h-432c-4.42.01-7.99 3.58-8 8v432c.01 4.42 3.58 7.99 8 8h432c4.42-.01 7.99-3.58 8-8z"/><path d="m424 376v16h-336v-16h68.31c-1.46-2.52-2.57-5.23-3.3-8.05-4.4-17.1 5.89-34.53 22.99-38.94v-1.01h-32v-16h216v-16h-144c-3.15 0-6-1.85-7.29-4.72l-69.88-155.28h-34.83v-16h40c3.15 0 6 1.85 7.29 4.72l8.68 19.28h200.03c4.42 0 8 3.58 8 8v48c0 2.12-.84 4.16-2.34 5.66l-56 56c-1.5 1.5-3.54 2.34-5.66 2.34h-90.03l7.2 16h146.83c4.42 0 8 3.58 8 8v32c0 4.42-3.58 8-8 8h-24v1.01c14.12 3.67 23.98 16.4 24 30.99 0 5.62-1.48 11.14-4.31 16zm-87.98.02c8.84-.01 15.99-7.18 15.98-16.02-.01-5.71-3.06-10.98-8-13.83v5.83c0 4.42-3.58 8-8 8s-8-3.58-8-8v-5.83c-4.96 2.86-8.01 8.15-8 13.87.01 8.84 7.18 15.99 16.02 15.98zm15.98-179.33v-36.69h-184.83l39.6 88h93.92zm-24 132.32v-1.01h-136v1.01c2.82.73 5.53 1.84 8.05 3.3 15.28 8.85 20.49 28.41 11.64 43.69h96.62c-1.46-2.52-2.57-5.23-3.3-8.05-4.4-17.1 5.89-34.53 22.99-38.94zm-130.17 39.01c4.43-7.65 1.82-17.43-5.83-21.85v5.83c0 4.42-3.58 8-8 8s-8-3.58-8-8v-5.83c-4.94 2.85-7.99 8.12-8 13.83 0 5.71 3.04 10.99 7.98 13.85 7.65 4.42 17.43 1.81 21.85-5.83z"/><path d="m320 424h16v16h-16z"/><path d="m272 424h16v16h-16z"/><path d="m224 424h16v16h-16z"/><path d="m176 424h16v16h-16z"/><circle cx="104" cy="56" r="8"/><circle cx="80" cy="56" r="8"/><circle cx="56" cy="56" r="8"/></g></svg>