<?xml version="1.0" encoding="iso-8859-1"?>
<!-- Generator: Adobe Illustrator 19.0.0, SVG Export Plug-In . SVG Version: 6.00 Build 0)  -->
<svg version="1.1" id="Capa_1" xmlns="http://www.w3.org/2000/svg" xmlns:xlink="http://www.w3.org/1999/xlink" x="0px" y="0px"
	 viewBox="0 0 477.849 477.849" style="enable-background:new 0 0 477.849 477.849;" xml:space="preserve">
<g>
	<g>
		<path d="M374.099,385.518c71.682-74.715,69.224-193.394-5.492-265.076c-34.974-33.554-81.584-52.26-130.052-52.193
			C135.015,68.105,50.962,151.925,50.819,255.466c-0.067,48.467,18.639,95.077,52.193,130.052l-48.777,65.024
			c-5.655,7.541-4.127,18.238,3.413,23.893s18.238,4.127,23.893-3.413l47.275-63.044c65.4,47.651,154.078,47.651,219.477,0
			l47.275,63.044c5.655,7.541,16.353,9.069,23.893,3.413c7.541-5.655,9.069-16.353,3.413-23.893L374.099,385.518z M238.556,409.582
			c-84.792-0.094-153.506-68.808-153.6-153.6c0-84.831,68.769-153.6,153.6-153.6s153.6,68.769,153.6,153.6
			S323.387,409.582,238.556,409.582z"/>
	</g>
</g>
<g>
	<g>
		<path d="M145.286,24.984C111.544-7.918,57.519-7.237,24.616,26.505c-32.314,33.139-32.318,85.997-0.008,119.141
			c6.665,6.663,17.468,6.663,24.132,0l96.546-96.529C151.949,42.452,151.949,31.649,145.286,24.984z M38.739,107.382
			c-12.186-25.516-1.38-56.08,24.136-68.267c13.955-6.665,30.175-6.665,44.131,0L38.739,107.382z"/>
	</g>
</g>
<g>
	<g>
		<path d="M452.486,24.984c-33.323-33.313-87.339-33.313-120.661,0c-6.663,6.665-6.663,17.468,0,24.132l96.529,96.529
			c6.665,6.663,17.468,6.663,24.132,0C485.799,112.323,485.799,58.307,452.486,24.984z M438.406,107.433l-0.034-0.034
			l-68.267-68.267c19.632-9.021,42.79-5.041,58.283,10.018C443.744,64.491,447.759,87.846,438.406,107.433z"/>
	</g>
</g>
<g>
	<g>
		<path d="M238.556,136.515c-9.426,0-17.067,7.641-17.067,17.067v96.717l-47.787,63.71c-5.655,7.541-4.127,18.238,3.413,23.893
			s18.238,4.127,23.893-3.413l51.2-68.267c2.216-2.954,3.413-6.547,3.413-10.24v-102.4
			C255.622,144.156,247.981,136.515,238.556,136.515z"/>
	</g>
</g>
<g>
</g>
<g>
</g>
<g>
</g>
<g>
</g>
<g>
</g>
<g>
</g>
<g>
</g>
<g>
</g>
<g>
</g>
<g>
</g>
<g>
</g>
<g>
</g>
<g>
</g>
<g>
</g>
<g>
</g>
</svg>
