<?xml version="1.0" encoding="iso-8859-1"?>
<!-- Generator: Adobe Illustrator 19.0.0, SVG Export Plug-In . SVG Version: 6.00 Build 0)  -->
<svg version="1.1" id="Layer_1" xmlns="http://www.w3.org/2000/svg" xmlns:xlink="http://www.w3.org/1999/xlink" x="0px" y="0px"
	 viewBox="0 0 273.106 273.106" style="enable-background:new 0 0 273.106 273.106;" xml:space="preserve">
<g transform="translate(0 -562.36)">
	<g>
		<g>
			<path d="M160.7,586.956c-2.1,0-4.2,0.5-5.8,1.6l-95,47.2H14.2c-7.9,0-14.2,6.3-14.2,14.2v98.1c0,7.3,6.3,13.6,14.2,13.6h45.7
				l95,47.7c8.9,4.7,19.9-2.1,19.9-12.6v-195.7C174.9,593.256,168.6,586.956,160.7,586.956z M147.1,774.256l-77.7-38.8
				c-2.1-1-4.2-1.6-6.3-1.6H27.9v-69.8h35.2c2.1,0,4.2-0.5,6.3-1.6l77.7-38.8V774.256z"/>
			<path d="M210.1,660.456L210.1,660.456c-7.9,0-14.2,6.3-14.2,14.2v48.8c0,18.9,28.3,18.9,28.3,0v-48.8
				C224.3,666.756,218,659.856,210.1,660.456z"/>
			<path d="M258.9,635.756c-7.9,0-14.2,6.3-13.6,14.2v98.1c-0.5,18.9,28.3,18.9,27.8,0v-98.1
				C273.1,642.056,266.8,635.756,258.9,635.756z"/>
			<polygon points="258.9,635.756 258.9,635.756 258.9,635.756 			"/>
		</g>
	</g>
</g>
<g>
</g>
<g>
</g>
<g>
</g>
<g>
</g>
<g>
</g>
<g>
</g>
<g>
</g>
<g>
</g>
<g>
</g>
<g>
</g>
<g>
</g>
<g>
</g>
<g>
</g>
<g>
</g>
<g>
</g>
</svg>
