<svg id="Capa_1" enable-background="new 0 0 387.882 387.882" height="512" viewBox="0 0 387.882 387.882" width="512" xmlns="http://www.w3.org/2000/svg"><path d="m359.189 341.183-19.778-49.459c-4.613-11.499-6.94-23.62-6.94-36.012v-89.476c0-62.068-41.31-114.116-97.677-131.676-3.351-19.579-20.332-34.56-40.853-34.56s-37.502 14.981-40.852 34.56c-56.367 17.56-97.677 69.608-97.677 131.676v89.476c0 12.392-2.327 24.513-6.94 36.012l-19.778 49.459c-1.705 4.275-1.177 9.091 1.393 12.906 2.584 3.815 6.872 6.088 11.472 6.088h105.306c9.822 16.694 27.341 27.706 47.077 27.706s37.255-11.012 47.077-27.706h105.306c4.6 0 8.888-2.273 11.472-6.088 2.569-3.815 3.096-8.631 1.392-12.906zm-297.176-8.713 12.189-30.466c5.912-14.773 8.915-30.357 8.915-46.294v-89.476c0-61.121 49.716-110.824 110.824-110.824s110.823 49.703 110.823 110.824v89.476c0 15.936 3.003 31.521 8.915 46.294l12.189 30.466z"/></svg>