<?xml version="1.0" encoding="iso-8859-1"?>
<!-- Generator: Adobe Illustrator 19.0.0, SVG Export Plug-In . SVG Version: 6.00 Build 0)  -->
<svg version="1.1" id="Capa_1" xmlns="http://www.w3.org/2000/svg" xmlns:xlink="http://www.w3.org/1999/xlink" x="0px" y="0px"
	 viewBox="0 0 477.846 477.846" style="enable-background:new 0 0 477.846 477.846;" xml:space="preserve">
<g>
	<g>
		<path d="M472.847,226.846l-34.116-34.116L250.998,4.997c-6.664-6.663-17.468-6.663-24.132,0L39.132,192.73L4.999,226.864
			c-6.548,6.78-6.361,17.584,0.419,24.132c6.614,6.388,17.099,6.388,23.713,0l4.983-5.018v214.801
			c0,9.426,7.641,17.067,17.067,17.067h375.467c9.426,0,17.067-7.641,17.067-17.067V245.978l5,5.001
			c6.78,6.548,17.584,6.36,24.132-0.419C479.235,243.946,479.235,233.46,472.847,226.846z M290.115,443.713h-102.4V307.179h102.4
			V443.713z M409.581,443.713h-85.333v-153.6c0-9.426-7.641-17.067-17.067-17.067H170.648c-9.426,0-17.067,7.641-17.067,17.067
			v153.6H68.248V211.845L238.914,41.178l170.667,170.667V443.713z"/>
	</g>
</g>
<g>
</g>
<g>
</g>
<g>
</g>
<g>
</g>
<g>
</g>
<g>
</g>
<g>
</g>
<g>
</g>
<g>
</g>
<g>
</g>
<g>
</g>
<g>
</g>
<g>
</g>
<g>
</g>
<g>
</g>
</svg>
