<svg enable-background="new 0 0 24 24" height="512" viewBox="0 0 24 24" width="512" xmlns="http://www.w3.org/2000/svg"><path d="m15.5 16h-7c-.196 0-.374-.115-.455-.293-.082-.179-.05-.388.079-.536l3.5-4c.19-.218.562-.218.753 0l3.5 4c.129.147.16.357.079.536-.082.178-.26.293-.456.293zm-5.898-1h4.796l-2.398-2.741z"/><path d="m15.5 19h-7c-.196 0-.375-.115-.456-.293s-.05-.389.08-.536l2.63-3c.182-.208.499-.228.706-.046.208.182.229.498.046.706l-1.903 2.169h4.796l-1.896-2.171c-.182-.208-.161-.524.047-.706.208-.183.523-.161.706.047l2.62 3c.129.148.16.357.079.536s-.259.294-.455.294z"/><path d="m12 21c-.276 0-.5-.224-.5-.5v-2c0-.276.224-.5.5-.5s.5.224.5.5v2c0 .276-.224.5-.5.5z"/><path d="m21.5 24h-19c-1.378 0-2.5-1.122-2.5-2.5v-17c0-1.378 1.122-2.5 2.5-2.5h19c1.378 0 2.5 1.122 2.5 2.5v17c0 1.378-1.122 2.5-2.5 2.5zm-19-21c-.827 0-1.5.673-1.5 1.5v17c0 .827.673 1.5 1.5 1.5h19c.827 0 1.5-.673 1.5-1.5v-17c0-.827-.673-1.5-1.5-1.5z"/><path d="m23.5 9h-23c-.276 0-.5-.224-.5-.5s.224-.5.5-.5h23c.276 0 .5.224.5.5s-.224.5-.5.5z"/><path d="m5.5 5c-.276 0-.5-.224-.5-.5v-4c0-.276.224-.5.5-.5s.5.224.5.5v4c0 .276-.224.5-.5.5z"/><path d="m18.5 5c-.276 0-.5-.224-.5-.5v-4c0-.276.224-.5.5-.5s.5.224.5.5v4c0 .276-.224.5-.5.5z"/></svg>