<?xml version="1.0" encoding="iso-8859-1"?>
<!-- Generator: Adobe Illustrator 19.0.0, SVG Export Plug-In . SVG Version: 6.00 Build 0)  -->
<svg version="1.1" id="Capa_1" xmlns="http://www.w3.org/2000/svg" xmlns:xlink="http://www.w3.org/1999/xlink" x="0px" y="0px"
	 viewBox="0 0 197.974 197.974" style="enable-background:new 0 0 197.974 197.974;" xml:space="preserve">
<g>
	<g>
		<path d="M183.03,0H14.944C6.704,0,0,6.704,0,14.944V183.03c0,8.24,6.704,14.944,14.944,14.944H183.03
			c8.24,0,14.944-6.704,14.944-14.944V14.944C197.973,6.704,191.27,0,183.03,0z M191.147,183.03c0,4.477-3.64,8.117-8.117,8.117
			H14.944c-4.477,0-8.117-3.64-8.117-8.117V14.944c0-4.477,3.64-8.117,8.117-8.117H183.03c4.477,0,8.117,3.64,8.117,8.117V183.03z"
			/>
	</g>
</g>
<g>
	<g>
		<path d="M98.987,3.413c-1.886,0-3.413,1.527-3.413,3.413v184.32c0,1.886,1.527,3.413,3.413,3.413s3.413-1.528,3.413-3.413V6.827
			C102.4,4.941,100.873,3.413,98.987,3.413z"/>
	</g>
</g>
<g>
	<g>
		<path d="M51.2,3.413c-1.886,0-3.413,1.527-3.413,3.413v184.32c0,1.886,1.527,3.413,3.413,3.413s3.413-1.528,3.413-3.413V6.827
			C54.613,4.941,53.086,3.413,51.2,3.413z"/>
	</g>
</g>
<g>
	<g>
		<path d="M146.773,3.413c-1.886,0-3.413,1.527-3.413,3.413v184.32c0,1.886,1.527,3.413,3.413,3.413s3.413-1.528,3.413-3.413V6.827
			C150.187,4.941,148.659,3.413,146.773,3.413z"/>
	</g>
</g>
<g>
	<g>
		<path d="M191.147,95.573H6.827c-1.886,0-3.413,1.527-3.413,3.413c0,1.886,1.527,3.413,3.413,3.413h184.32
			c1.886,0,3.413-1.527,3.413-3.413C194.56,97.1,193.033,95.573,191.147,95.573z"/>
	</g>
</g>
<g>
	<g>
		<path d="M191.147,143.36H6.827c-1.886,0-3.413,1.527-3.413,3.413c0,1.886,1.527,3.413,3.413,3.413h184.32
			c1.886,0,3.413-1.527,3.413-3.413C194.56,144.887,193.033,143.36,191.147,143.36z"/>
	</g>
</g>
<g>
	<g>
		<path d="M191.147,47.787H6.827c-1.886,0-3.413,1.527-3.413,3.413s1.527,3.413,3.413,3.413h184.32c1.886,0,3.413-1.527,3.413-3.413
			C194.56,49.314,193.033,47.787,191.147,47.787z"/>
	</g>
</g>
<g>
</g>
<g>
</g>
<g>
</g>
<g>
</g>
<g>
</g>
<g>
</g>
<g>
</g>
<g>
</g>
<g>
</g>
<g>
</g>
<g>
</g>
<g>
</g>
<g>
</g>
<g>
</g>
<g>
</g>
</svg>
