<svg id="Layer_1" enable-background="new 0 0 511.334 511.334" height="512" viewBox="0 0 511.334 511.334" width="512" xmlns="http://www.w3.org/2000/svg"><path d="m436.667 21c0-11.598-9.402-21-21-21h-394.667c-11.598 0-21 9.402-21 21v394.667c0 11.598 9.402 21 21 21s21-9.402 21-21v-373.667h373.667c11.598 0 21-9.402 21-21z"/><path d="m490.333 74.667h-394.666c-11.598 0-21 9.402-21 21v394.667c0 11.598 9.402 21 21 21h394.667c11.598 0 21-9.402 21-21v-394.667c-.001-11.598-9.402-21-21.001-21zm-109.216 179.725c-5.188 10.373-17.802 14.575-28.175 9.392l-33.608-16.805v94.021c0 35.106-28.561 63.667-63.667 63.667s-63.667-28.561-63.667-63.667c0-35.105 28.561-63.666 63.667-63.666h21.667v-64.334c0-15.607 16.453-25.75 30.392-18.783l64 32c10.373 5.186 14.577 17.801 9.391 28.175z"/></svg>