<?xml version="1.0" encoding="iso-8859-1"?>
<!-- Generator: Adobe Illustrator 16.0.0, SVG Export Plug-In . SVG Version: 6.00 Build 0)  -->
<!DOCTYPE svg PUBLIC "-//W3C//DTD SVG 1.1//EN" "http://www.w3.org/Graphics/SVG/1.1/DTD/svg11.dtd">
<svg version="1.1" id="Capa_1" xmlns="http://www.w3.org/2000/svg" xmlns:xlink="http://www.w3.org/1999/xlink" x="0px" y="0px"
	 width="58.25px" height="58.25px" viewBox="0 0 58.25 58.25" style="enable-background:new 0 0 58.25 58.25;" xml:space="preserve"
	>
<g>
	<g>
		<path d="M3,51.75h52.25c1.654,0,3-1.346,3-3V9.5c0-1.654-1.346-3-3-3H3c-1.654,0-3,1.346-3,3v39.25C0,50.404,1.346,51.75,3,51.75z
			 M52.25,45.25c0,0.551-0.449,1-1,1H7c-0.551,0-1-0.449-1-1v-25.5c0-0.551,0.449-1,1-1h44.25c0.551,0,1,0.449,1,1V45.25z
			 M34.75,11.625h18.5c0.553,0,1,0.448,1,1s-0.447,1-1,1h-18.5c-0.553,0-1-0.448-1-1S34.197,11.625,34.75,11.625z M13.75,11.625
			h3.125c0.553,0,1,0.448,1,1s-0.447,1-1,1H13.75c-0.553,0-1-0.448-1-1S13.197,11.625,13.75,11.625z M5.75,11.625h3.125
			c0.553,0,1,0.448,1,1s-0.447,1-1,1H5.75c-0.553,0-1-0.448-1-1S5.197,11.625,5.75,11.625z"/>
	</g>
</g>
<g>
</g>
<g>
</g>
<g>
</g>
<g>
</g>
<g>
</g>
<g>
</g>
<g>
</g>
<g>
</g>
<g>
</g>
<g>
</g>
<g>
</g>
<g>
</g>
<g>
</g>
<g>
</g>
<g>
</g>
</svg>
