<svg id="Layer_1" enable-background="new 0 0 512 512" height="512" viewBox="0 0 512 512" width="512" xmlns="http://www.w3.org/2000/svg"><g><path d="m485.239 148.16-83.43 75.84h-291.62l-83.43-75.84c-6.54-5.94-16.66-5.46-22.6 1.08s-5.46 16.66 1.08 22.6l82.76 75.24v248.92c0 8.84 7.16 16 16 16h304c8.84 0 16-7.16 16-16v-248.92l82.76-75.24c6.54-5.94 7.02-16.06 1.08-22.6s-16.06-7.02-22.6-1.08zm-142.37 206.3-29.948 29.195c-1.178 1.149-1.716 2.804-1.438 4.426l7.075 41.219c2.236 13.026-11.516 23.013-23.22 16.86l-37.014-19.457c-1.457-.766-3.196-.766-4.653 0l-37.014 19.457c-11.693 6.161-25.46-3.81-23.22-16.86l7.075-41.219c.278-1.622-.259-3.277-1.438-4.426l-29.948-29.195c-9.473-9.234-4.242-25.396 8.86-27.29l41.388-6.012c1.629-.237 3.037-1.26 3.765-2.735l18.507-37.503c5.872-11.876 22.829-11.872 28.7 0l18.507 37.503c.728 1.476 2.136 2.499 3.765 2.735l41.388 6.012c13.089 1.891 18.347 18.046 8.863 27.29z"/><path d="m265.049 342.48-4.567-9.249c-1.834-3.715-7.132-3.715-8.967 0l-4.567 9.249c-2.33 4.73-6.83 8-12.04 8.76l-10.197 1.477c-4.102.594-5.742 5.635-2.773 8.529l7.381 7.194c3.77 3.68 5.49 8.98 4.6 14.16l-1.745 10.163c-.701 4.085 3.586 7.2 7.255 5.272l9.121-4.795c4.623-2.43 10.186-2.478 14.9 0l9.121 4.795c3.669 1.929 7.956-1.187 7.255-5.272l-1.745-10.163c-.89-5.18.83-10.48 4.6-14.16l7.381-7.194c2.968-2.893 1.329-7.935-2.773-8.529l-10.197-1.477c-5.213-.76-9.713-4.03-12.043-8.76z"/><path d="m65.42 47.937c.743-.064 74.805-6.001 120.895 36.237 25.005 22.915 37.684 56.502 37.684 99.827 0 8.836 7.164 16 16 16s16-7.164 16-16c0-52.77-16.232-94.349-48.245-123.584-56.662-51.746-141.613-44.678-145.204-44.351-8.789.799-15.258 8.563-14.474 17.354s8.558 15.292 17.344 14.517z"/><path d="m303.999 184c0 8.836 7.164 16.026 16 16.026s16-7.138 16-15.974c.02-3.063 1.252-75.186 67.138-88.362 8.665-1.733 14.285-10.162 12.552-18.827s-10.163-14.281-18.827-12.552c-38.176 7.635-66.404 30.989-81.631 67.536-11.104 26.647-11.232 51.124-11.232 52.153z"/><path d="m447.999 88h8v8c0 8.836 7.164 16 16 16s16-7.164 16-16v-8h8c8.836 0 16-7.164 16-16s-7.164-16-16-16h-8v-8c0-8.836-7.164-16-16-16s-16 7.164-16 16v8h-8c-8.836 0-16 7.164-16 16s7.164 16 16 16z"/><path d="m255.999 56h8v8c0 8.836 7.164 16 16 16s16-7.164 16-16v-8h8c8.836 0 16-7.164 16-16s-7.164-16-16-16h-8v-8c0-8.836-7.164-16-16-16s-16 7.164-16 16v8h-8c-8.836 0-16 7.164-16 16s7.164 16 16 16z"/><path d="m127.999 176c8.836 0 16-7.164 16-16v-8h8c8.836 0 16-7.164 16-16s-7.164-16-16-16h-8v-8c0-8.836-7.164-16-16-16s-16 7.164-16 16v8h-8c-8.836 0-16 7.164-16 16s7.164 16 16 16h8v8c0 8.836 7.164 16 16 16z"/></g></svg>