<?xml version="1.0" encoding="iso-8859-1"?>
<!-- Generator: Adobe Illustrator 19.0.0, SVG Export Plug-In . SVG Version: 6.00 Build 0)  -->
<svg version="1.1" id="Capa_1" xmlns="http://www.w3.org/2000/svg" xmlns:xlink="http://www.w3.org/1999/xlink" x="0px" y="0px"
	 viewBox="0 0 477.88 477.88" style="enable-background:new 0 0 477.88 477.88;" xml:space="preserve">
<g>
	<g>
		<path d="M472.897,124.269c-0.01-0.01-0.02-0.02-0.03-0.031l-0.017,0.017l-68.267-68.267c-6.78-6.548-17.584-6.36-24.132,0.42
			c-6.388,6.614-6.388,17.099,0,23.713l39.151,39.151h-95.334c-65.948,0.075-119.391,53.518-119.467,119.467
			c-0.056,47.105-38.228,85.277-85.333,85.333h-102.4C7.641,324.072,0,331.713,0,341.139s7.641,17.067,17.067,17.067h102.4
			c65.948-0.075,119.391-53.518,119.467-119.467c0.056-47.105,38.228-85.277,85.333-85.333h95.334l-39.134,39.134
			c-6.78,6.548-6.968,17.353-0.419,24.132c6.548,6.78,17.353,6.968,24.132,0.419c0.142-0.137,0.282-0.277,0.419-0.419l68.267-68.267
			C479.54,141.748,479.553,130.942,472.897,124.269z"/>
	</g>
</g>
<g>
	<g>
		<path d="M472.897,329.069c-0.01-0.01-0.02-0.02-0.03-0.03l-0.017,0.017l-68.267-68.267c-6.78-6.548-17.584-6.36-24.132,0.42
			c-6.388,6.614-6.388,17.099,0,23.712l39.151,39.151h-95.334c-20.996,0.015-41.258-7.721-56.9-21.726
			c-7.081-6.222-17.864-5.525-24.086,1.555c-6.14,6.988-5.553,17.605,1.319,23.874c21.898,19.614,50.269,30.451,79.667,30.43h95.334
			l-39.134,39.134c-6.78,6.548-6.968,17.352-0.42,24.132c6.548,6.78,17.352,6.968,24.132,0.42c0.142-0.138,0.282-0.277,0.42-0.42
			l68.267-68.267C479.54,346.548,479.553,335.742,472.897,329.069z"/>
	</g>
</g>
<g>
	<g>
		<path d="M199.134,149.702c-21.898-19.614-50.269-30.451-79.667-30.43h-102.4C7.641,119.272,0,126.913,0,136.339
			c0,9.426,7.641,17.067,17.067,17.067h102.4c20.996-0.015,41.258,7.721,56.9,21.726c7.081,6.222,17.864,5.525,24.086-1.555
			C206.593,166.588,206.006,155.971,199.134,149.702z"/>
	</g>
</g>
<g>
</g>
<g>
</g>
<g>
</g>
<g>
</g>
<g>
</g>
<g>
</g>
<g>
</g>
<g>
</g>
<g>
</g>
<g>
</g>
<g>
</g>
<g>
</g>
<g>
</g>
<g>
</g>
<g>
</g>
</svg>
