<?xml version="1.0" encoding="iso-8859-1"?>
<!-- Generator: Adobe Illustrator 19.0.0, SVG Export Plug-In . SVG Version: 6.00 Build 0)  -->
<svg version="1.1" id="Capa_1" xmlns="http://www.w3.org/2000/svg" xmlns:xlink="http://www.w3.org/1999/xlink" x="0px" y="0px"
	 viewBox="0 0 512 512" style="enable-background:new 0 0 512 512;" xml:space="preserve">
<g>
	<g>
		<path d="M256,192.801c-34.849,0-63.2,28.351-63.2,63.199c0,29.68,20.571,54.634,48.2,61.387V497c0,8.284,6.716,15,15,15
			s15-6.716,15-15V317.387c27.629-6.753,48.2-31.706,48.2-61.387C319.2,221.152,290.849,192.801,256,192.801z"/>
	</g>
</g>
<g>
	<g>
		<path d="M256,96.4c-88.004,0-159.6,71.596-159.6,159.599c0,45.341,19.388,88.7,53.191,118.958c6.172,5.525,15.654,5,21.181-1.173
			c5.524-6.172,5-15.655-1.173-21.181c-27.453-24.574-43.199-59.785-43.199-96.604c0-71.461,58.139-129.599,129.6-129.599
			c71.462,0,129.601,58.138,129.601,129.599c0,36.819-15.747,72.031-43.203,96.605c-6.173,5.525-6.698,15.008-1.173,21.181
			c2.963,3.31,7.063,4.996,11.182,4.996c3.562,0,7.137-1.261,9.999-3.823c33.806-30.258,53.195-73.618,53.195-118.959
			C415.601,167.996,344.004,96.4,256,96.4z"/>
	</g>
</g>
<g>
	<g>
		<path d="M437.02,74.981C388.668,26.629,324.381,0,256,0S123.332,26.629,74.979,74.981C26.629,123.334,0,187.62,0,255.999
			C0,357.806,60.29,449.93,153.596,490.694c7.594,3.316,16.434-0.149,19.75-7.74c3.316-7.592-0.148-16.434-7.74-19.751
			C83.229,427.213,30,345.88,30,255.999C30,131.383,131.383,30,256,30s226,101.383,226,225.999
			c0,89.88-53.228,171.212-135.604,207.205c-7.591,3.317-11.056,12.16-7.739,19.75c2.463,5.637,7.972,8.999,13.753,8.999
			c2.005,0,4.043-0.405,5.998-1.259C451.711,449.927,512,357.804,512,255.999C512,187.62,485.371,123.334,437.02,74.981z"/>
	</g>
</g>
<g>
</g>
<g>
</g>
<g>
</g>
<g>
</g>
<g>
</g>
<g>
</g>
<g>
</g>
<g>
</g>
<g>
</g>
<g>
</g>
<g>
</g>
<g>
</g>
<g>
</g>
<g>
</g>
<g>
</g>
</svg>
