<svg id="Capa_1" enable-background="new 0 0 512 512" height="512" viewBox="0 0 512 512" width="512" xmlns="http://www.w3.org/2000/svg"><g><path d="m345.114 40.137-20.068-40.137h-138.092l-20.068 40.137z"/><path d="m48.863 101.546v19.952h414.274v-19.952c0-15.057-10.242-27.718-24.137-31.408h-366c-13.895 3.69-24.137 16.351-24.137 31.408z"/><path d="m432.806 208.5h-10.692l5.263-57.002h-342.753l5.263 57.002h-10.693c-26.191 0-47.5 21.309-47.5 47.5s21.309 47.5 47.5 47.5h19.464l19.251 208.5h276.183l19.251-208.5h19.464c26.191 0 47.5-21.309 47.5-47.5s-21.31-47.5-47.501-47.5zm-353.612 65c-9.649 0-17.5-7.851-17.5-17.5s7.851-17.5 17.5-17.5h13.462l3.232 35zm122.761 171.048h-30v-239.005h30zm69.045 0h-30v-239.005h30zm69.045 0h-30v-239.005h30zm92.761-171.048h-16.694l3.232-35h13.462c9.649 0 17.5 7.851 17.5 17.5s-7.851 17.5-17.5 17.5z"/></g></svg>