<svg id="light" enable-background="new 0 0 24 24" height="512" viewBox="0 0 24 24" width="512" xmlns="http://www.w3.org/2000/svg"><path d="m22.5 18h-21c-.827 0-1.5-.673-1.5-1.5v-13c0-.827.673-1.5 1.5-1.5h21c.827 0 1.5.673 1.5 1.5v13c0 .827-.673 1.5-1.5 1.5zm-21-15c-.276 0-.5.224-.5.5v13c0 .276.224.5.5.5h21c.276 0 .5-.224.5-.5v-13c0-.276-.224-.5-.5-.5z"/><path d="m12 3c-.276 0-.5-.224-.5-.5v-2c0-.276.224-.5.5-.5s.5.224.5.5v2c0 .276-.224.5-.5.5z"/><path d="m12 24c-.276 0-.5-.224-.5-.5v-6c0-.276.224-.5.5-.5s.5.224.5.5v6c0 .276-.224.5-.5.5z"/><path d="m16.5 24c-.095 0-.191-.027-.277-.084l-4.5-3c-.23-.153-.292-.463-.139-.693s.463-.292.693-.139l4.5 3c.23.153.292.463.139.693-.096.145-.255.223-.416.223z"/><path d="m7.5 24c-.162 0-.32-.078-.417-.223-.153-.23-.091-.54.139-.693l4.5-3c.23-.153.541-.092.693.139.153.23.091.54-.139.693l-4.5 3c-.084.057-.18.084-.276.084z"/><path d="m16.5 15h-3c-.276 0-.5-.224-.5-.5v-9c0-.276.224-.5.5-.5h3c.276 0 .5.224.5.5v9c0 .276-.224.5-.5.5zm-2.5-1h2v-8h-2z"/><path d="m10.5 15h-3c-.276 0-.5-.224-.5-.5v-5c0-.276.224-.5.5-.5h3c.276 0 .5.224.5.5v5c0 .276-.224.5-.5.5zm-2.5-1h2v-4h-2z"/><path d="m17.5 15h-11c-.276 0-.5-.224-.5-.5s.224-.5.5-.5h11c.276 0 .5.224.5.5s-.224.5-.5.5z"/></svg>