<?xml version="1.0" encoding="iso-8859-1"?>
<!-- Generator: Adobe Illustrator 19.0.0, SVG Export Plug-In . SVG Version: 6.00 Build 0)  -->
<svg version="1.1" id="Capa_1" xmlns="http://www.w3.org/2000/svg" xmlns:xlink="http://www.w3.org/1999/xlink" x="0px" y="0px"
	 viewBox="0 0 49.132 49.132" style="enable-background:new 0 0 49.132 49.132;" xml:space="preserve">
<g>
	<g>
		<path d="M24.566,0C10.997,0,0,10.999,0,24.566c0,13.567,10.997,24.566,24.566,24.566c13.569,0,24.566-10.999,24.566-24.566
			C49.132,10.999,38.134,0,24.566,0z M43.16,20.918l-4.521,0.798c-0.7,0.123-1.533,0.745-1.852,1.382l-0.922,1.845
			c-0.318,0.635-0.452,1.724-0.297,2.418l1.102,4.959c0.154,0.694-0.272,1.446-0.946,1.671l-2.535,0.845
			c-0.674,0.225-1.614,0.844-2.086,1.375l-1.609,1.811c-0.473,0.531-1.44,0.921-2.148,0.866l-2.826-0.217
			c-0.709-0.055-1.122-0.657-0.917-1.338l0.504-1.68c0.204-0.681-0.122-1.547-0.725-1.924l-1.133-0.708
			c-0.603-0.377-1.445-0.22-1.872,0.349l-3.438,4.584c-0.427,0.568-0.31,1.383,0.259,1.809l1.257,0.943
			c0.569,0.426,0.872,1.334,0.674,2.017l-0.303,1.041c-5.022-1.505-9.222-4.931-11.743-9.422l0.771-0.69
			c0.529-0.475,1.081-1.433,1.227-2.129l0.175-0.842c0.145-0.696-0.138-1.685-0.63-2.198l-0.879-0.917
			c-0.492-0.513-0.394-1.23,0.218-1.592l1.57-0.93c0.612-0.363,1.602-0.343,2.2,0.041l1.566,1.008
			c0.598,0.385,1.601,0.427,2.229,0.094l1.915-1.016c0.628-0.334,1.272-1.173,1.432-1.866l0.31-1.351
			c0.16-0.693,0.047-1.789-0.25-2.435l-1.096-2.385c-0.297-0.646-0.012-1.419,0.634-1.717l2.593-1.197
			c0.646-0.298,1.279-1.114,1.407-1.813l0.383-2.086c0.128-0.699-0.105-1.745-0.517-2.325l-1.475-2.072
			c-0.191-0.269-0.302-0.626-0.335-0.992c1.303-0.266,2.653-0.407,4.035-0.407c9.807,0,17.987,7.084,19.704,16.403
			C43.874,20.872,43.477,20.862,43.16,20.918z"/>
	</g>
</g>
<g>
</g>
<g>
</g>
<g>
</g>
<g>
</g>
<g>
</g>
<g>
</g>
<g>
</g>
<g>
</g>
<g>
</g>
<g>
</g>
<g>
</g>
<g>
</g>
<g>
</g>
<g>
</g>
<g>
</g>
</svg>
