<svg width="1247" height="74" viewBox="0 0 1247 74" fill="none" xmlns="http://www.w3.org/2000/svg">
<path d="M54 1L25 73.5" stroke="#3C3748"/>
<path d="M62 1L33 73.5" stroke="#3C3748"/>
<path d="M70 1L41 73.5" stroke="#3C3748"/>
<path d="M78 1L49 73.5" stroke="#3C3748"/>
<path d="M86 1L57 73.5" stroke="#3C3748"/>
<path d="M94 1L65 73.5" stroke="#3C3748"/>
<path d="M102 1L73 73.5" stroke="#3C3748"/>
<path d="M110 1L81 73.5" stroke="#3C3748"/>
<path d="M118 1L89 73.5" stroke="#3C3748"/>
<path d="M126 1L97 73.5" stroke="#3C3748"/>
<path d="M134 1L105 73.5" stroke="#3C3748"/>
<path d="M142 1L113 73.5" stroke="#3C3748"/>
<path d="M150 1L121 73.5" stroke="#3C3748"/>
<path d="M158 1L129 73.5" stroke="#3C3748"/>
<path d="M166 1L137 73.5" stroke="#3C3748"/>
<path d="M174 1L145 73.5" stroke="#3C3748"/>
<path d="M182 1L153 73.5" stroke="#3C3748"/>
<path d="M190 1L161 73.5" stroke="#3C3748"/>
<path d="M198 1L169 73.5" stroke="#3C3748"/>
<path d="M206 1L177 73.5" stroke="#3C3748"/>
<path d="M214 1L185 73.5" stroke="#3C3748"/>
<path d="M222 1L193 73.5" stroke="#3C3748"/>
<path d="M230 1L201 73.5" stroke="#3C3748"/>
<path d="M238 1L209 73.5" stroke="#3C3748"/>
<path d="M246 1L217 73.5" stroke="#3C3748"/>
<path d="M254 1L225 73.5" stroke="#3C3748"/>
<path d="M262 1L233 73.5" stroke="#3C3748"/>
<path d="M270 1L241 73.5" stroke="#3C3748"/>
<path d="M278 1L249 73.5" stroke="#3C3748"/>
<path d="M286 1L257 73.5" stroke="#3C3748"/>
<path d="M294 1L265 73.5" stroke="#3C3748"/>
<path d="M302 1L273 73.5" stroke="#3C3748"/>
<path d="M310 1L281 73.5" stroke="#3C3748"/>
<path d="M318 1L289 73.5" stroke="#3C3748"/>
<path d="M326 1L297 73.5" stroke="#3C3748"/>
<path d="M334 1L305 73.5" stroke="#3C3748"/>
<path d="M342 1L313 73.5" stroke="#3C3748"/>
<path d="M350 1L321 73.5" stroke="#3C3748"/>
<path d="M358 1L329 73.5" stroke="#3C3748"/>
<path d="M366 1L337 73.5" stroke="#3C3748"/>
<path d="M374 1L345 73.5" stroke="#3C3748"/>
<path d="M382 1L353 73.5" stroke="#3C3748"/>
<path d="M390 1L361 73.5" stroke="#3C3748"/>
<path d="M398 1L369 73.5" stroke="#3C3748"/>
<path d="M406 1L377 73.5" stroke="#3C3748"/>
<path d="M414 1L385 73.5" stroke="#3C3748"/>
<path d="M422 1L393 73.5" stroke="#3C3748"/>
<path d="M430 1L401 73.5" stroke="#3C3748"/>
<path d="M438 1L409 73.5" stroke="#3C3748"/>
<path d="M446 1L417 73.5" stroke="#3C3748"/>
<path d="M454 1L425 73.5" stroke="#3C3748"/>
<path d="M462 1L433 73.5" stroke="#3C3748"/>
<path d="M470 1L441 73.5" stroke="#3C3748"/>
<path d="M478 1L449 73.5" stroke="#3C3748"/>
<path d="M486 1L457 73.5" stroke="#3C3748"/>
<path d="M494 1L465 73.5" stroke="#3C3748"/>
<path d="M502 1L473 73.5" stroke="#3C3748"/>
<path d="M510 1L481 73.5" stroke="#3C3748"/>
<path d="M518 1L489 73.5" stroke="#3C3748"/>
<path d="M526 1L497 73.5" stroke="#3C3748"/>
<path d="M534 1L505 73.5" stroke="#3C3748"/>
<path d="M542 1L513 73.5" stroke="#3C3748"/>
<path d="M550 1L521 73.5" stroke="#3C3748"/>
<path d="M558 1L529 73.5" stroke="#3C3748"/>
<path d="M566 1L537 73.5" stroke="#3C3748"/>
<path d="M574 1L545 73.5" stroke="#3C3748"/>
<path d="M582 1L553 73.5" stroke="#3C3748"/>
<path d="M590 1L561 73.5" stroke="#3C3748"/>
<path d="M598 1L569 73.5" stroke="#3C3748"/>
<path d="M606 1L577 73.5" stroke="#3C3748"/>
<path d="M614 1L585 73.5" stroke="#3C3748"/>
<path d="M622 1L593 73.5" stroke="#3C3748"/>
<path d="M630 1L601 73.5" stroke="#3C3748"/>
<path d="M638 1L609 73.5" stroke="#3C3748"/>
<path d="M646 1L617 73.5" stroke="#3C3748"/>
<path d="M654 1L625 73.5" stroke="#3C3748"/>
<path d="M662 1L633 73.5" stroke="#3C3748"/>
<path d="M670 1L641 73.5" stroke="#3C3748"/>
<path d="M678 1L649 73.5" stroke="#3C3748"/>
<path d="M686 1L657 73.5" stroke="#3C3748"/>
<path d="M694 1L665 73.5" stroke="#3C3748"/>
<path d="M702 1L673 73.5" stroke="#3C3748"/>
<path d="M710 1L681 73.5" stroke="#3C3748"/>
<path d="M718 1L689 73.5" stroke="#3C3748"/>
<path d="M726 1L697 73.5" stroke="#3C3748"/>
<path d="M734 1L705 73.5" stroke="#3C3748"/>
<path d="M742 1L713 73.5" stroke="#3C3748"/>
<path d="M750 1L721 73.5" stroke="#3C3748"/>
<path d="M758 1L729 73.5" stroke="#3C3748"/>
<path d="M766 1L737 73.5" stroke="#3C3748"/>
<path d="M774 1L745 73.5" stroke="#3C3748"/>
<path d="M782 1L753 73.5" stroke="#3C3748"/>
<path d="M790 1L761 73.5" stroke="#3C3748"/>
<path d="M798 1L769 73.5" stroke="#3C3748"/>
<path d="M806 1L777 73.5" stroke="#3C3748"/>
<path d="M814 1L785 73.5" stroke="#3C3748"/>
<path d="M822 1L793 73.5" stroke="#3C3748"/>
<path d="M830 1L801 73.5" stroke="#3C3748"/>
<path d="M838 1L809 73.5" stroke="#3C3748"/>
<path d="M846 1L817 73.5" stroke="#3C3748"/>
<path d="M854 1L825 73.5" stroke="#3C3748"/>
<path d="M862 1L833 73.5" stroke="#3C3748"/>
<path d="M870 1L841 73.5" stroke="#3C3748"/>
<path d="M878 1L849 73.5" stroke="#3C3748"/>
<path d="M886 1L857 73.5" stroke="#3C3748"/>
<path d="M894 1L865 73.5" stroke="#3C3748"/>
<path d="M902 1L873 73.5" stroke="#3C3748"/>
<path d="M910 1L881 73.5" stroke="#3C3748"/>
<path d="M918 1L889 73.5" stroke="#3C3748"/>
<path d="M926 1L897 73.5" stroke="#3C3748"/>
<path d="M934 1L905 73.5" stroke="#3C3748"/>
<path d="M942 1L913 73.5" stroke="#3C3748"/>
<path d="M950 1L921 73.5" stroke="#3C3748"/>
<path d="M958 1L929 73.5" stroke="#3C3748"/>
<path d="M966 1L937 73.5" stroke="#3C3748"/>
<path d="M974 1L945 73.5" stroke="#3C3748"/>
<path d="M982 1L953 73.5" stroke="#3C3748"/>
<path d="M990 1L961 73.5" stroke="#3C3748"/>
<path d="M998 1L969 73.5" stroke="#3C3748"/>
<path d="M1006 1L977 73.5" stroke="#3C3748"/>
<path d="M1014 1L985 73.5" stroke="#3C3748"/>
<path d="M1022 1L993 73.5" stroke="#3C3748"/>
<path d="M1030 1L1001 73.5" stroke="#3C3748"/>
<path d="M1038 1L1009 73.5" stroke="#3C3748"/>
<path d="M1046 1L1017 73.5" stroke="#3C3748"/>
<path d="M1054 1L1025 73.5" stroke="#3C3748"/>
<path d="M1062 1L1033 73.5" stroke="#3C3748"/>
<path d="M1070 1L1041 73.5" stroke="#3C3748"/>
<path d="M1078 1L1049 73.5" stroke="#3C3748"/>
<path d="M1086 1L1057 73.5" stroke="#3C3748"/>
<path d="M1094 1L1065 73.5" stroke="#3C3748"/>
<path d="M1102 1L1073 73.5" stroke="#3C3748"/>
<path d="M1110 1L1081 73.5" stroke="#3C3748"/>
<path d="M1118 1L1089 73.5" stroke="#3C3748"/>
<path d="M1126 1L1097 73.5" stroke="#3C3748"/>
<path d="M1134 1L1105 73.5" stroke="#3C3748"/>
<path d="M1142 1L1113 73.5" stroke="#3C3748"/>
<path d="M1150 1L1121 73.5" stroke="#3C3748"/>
<path d="M1158 1L1129 73.5" stroke="#3C3748"/>
<path d="M1166 1L1137 73.5" stroke="#3C3748"/>
<path d="M1174 1L1145 73.5" stroke="#3C3748"/>
<path d="M1182 1L1153 73.5" stroke="#3C3748"/>
<path d="M1190 1L1161 73.5" stroke="#3C3748"/>
<path d="M1198 1L1169 73.5" stroke="#3C3748"/>
<path d="M1206 1L1177 73.5" stroke="#3C3748"/>
<path d="M1214 1L1185 73.5" stroke="#3C3748"/>
<path d="M1222 1L1193 73.5" stroke="#3C3748"/>
<path d="M1230 1L1201 73.5" stroke="#3C3748"/>
<path d="M1238 1L1209 73.5" stroke="#3C3748"/>
<path d="M1246 1L1217 73.5" stroke="#3C3748"/>
<path d="M46 1L17 73.5" stroke="#3C3748"/>
<path d="M38 1L9 73.5" stroke="#3C3748"/>
<path d="M30 1L1 73.5" stroke="#3C3748"/>
</svg>
