<svg width="24" height="27" viewBox="0 0 24 27" fill="none" xmlns="http://www.w3.org/2000/svg">
<path d="M0 27V0H17L24 7V27H0Z" fill="#FFD7A9"/>
<path d="M10.5195 14.9941V18H8.76172V9.46875H12.0898C12.7305 9.46875 13.293 9.58594 13.7773 9.82031C14.2656 10.0547 14.6406 10.3887 14.9023 10.8223C15.1641 11.252 15.2949 11.7422 15.2949 12.293C15.2949 13.1289 15.0078 13.7891 14.4336 14.2734C13.8633 14.7539 13.0723 14.9941 12.0605 14.9941H10.5195ZM10.5195 13.5703H12.0898C12.5547 13.5703 12.9082 13.4609 13.1504 13.2422C13.3965 13.0234 13.5195 12.7109 13.5195 12.3047C13.5195 11.8867 13.3965 11.5488 13.1504 11.291C12.9043 11.0332 12.5645 10.9004 12.1309 10.8926H10.5195V13.5703Z" fill="#AD3D22"/>
</svg>
