<svg width="24" height="27" viewBox="0 0 24 27" fill="none" xmlns="http://www.w3.org/2000/svg">
<path d="M0 27V0H17L24 7V27H0Z" fill="#FFEBA9"/>
<path d="M13.1855 15.7617C13.1855 15.4297 13.0684 15.1758 12.834 15C12.5996 14.8203 12.1777 14.6328 11.5684 14.4375C10.959 14.2383 10.4766 14.043 10.1211 13.8516C9.15234 13.3281 8.66797 12.623 8.66797 11.7363C8.66797 11.2754 8.79688 10.8652 9.05469 10.5059C9.31641 10.1426 9.68945 9.85938 10.1738 9.65625C10.6621 9.45312 11.209 9.35156 11.8145 9.35156C12.4238 9.35156 12.9668 9.46289 13.4434 9.68555C13.9199 9.9043 14.2891 10.2148 14.5508 10.6172C14.8164 11.0195 14.9492 11.4766 14.9492 11.9883H13.1914C13.1914 11.5977 13.0684 11.2949 12.8223 11.0801C12.5762 10.8613 12.2305 10.752 11.7852 10.752C11.3555 10.752 11.0215 10.8438 10.7832 11.0273C10.5449 11.207 10.4258 11.4453 10.4258 11.7422C10.4258 12.0195 10.5645 12.252 10.8418 12.4395C11.123 12.627 11.5352 12.8027 12.0781 12.9668C13.0781 13.2676 13.8066 13.6406 14.2637 14.0859C14.7207 14.5312 14.9492 15.0859 14.9492 15.75C14.9492 16.4883 14.6699 17.0684 14.1113 17.4902C13.5527 17.9082 12.8008 18.1172 11.8555 18.1172C11.1992 18.1172 10.6016 17.998 10.0625 17.7598C9.52344 17.5176 9.11133 17.1875 8.82617 16.7695C8.54492 16.3516 8.4043 15.8672 8.4043 15.3164H10.168C10.168 16.2578 10.7305 16.7285 11.8555 16.7285C12.2734 16.7285 12.5996 16.6445 12.834 16.4766C13.0684 16.3047 13.1855 16.0664 13.1855 15.7617Z" fill="#C3A850"/>
</svg>
