<svg id="Capa_1" enable-background="new 0 0 512 512" height="512" viewBox="0 0 512 512" width="512" xmlns="http://www.w3.org/2000/svg"><circle cx="192.36" cy="192.361" r="15"/><circle cx="319.64" cy="319.64" r="15"/><path d="m475.767 256 23.697-69.658c2.142-6.296-.117-13.25-5.55-17.085l-60.097-42.427-21.814-70.255c-1.969-6.341-7.888-10.655-14.512-10.551l-73.556.916-58.97-43.966c-5.32-3.967-12.613-3.967-17.932 0l-58.965 43.966-73.553-.92c-6.625-.091-12.543 4.209-14.513 10.551l-21.815 70.254-60.1 42.428c-5.433 3.835-7.691 10.789-5.55 17.084l23.696 69.663-23.696 69.658c-2.142 6.296.117 13.25 5.55 17.085l60.097 42.427 21.813 70.255c1.969 6.341 7.884 10.62 14.512 10.551l73.556-.916 58.97 43.966c2.66 1.983 5.813 2.975 8.966 2.975s6.307-.991 8.966-2.975l58.966-43.965 73.553.92c6.637.101 12.544-4.208 14.513-10.551l21.815-70.254 60.099-42.428c5.433-3.835 7.691-10.789 5.551-17.084zm-328.407-63.639c0-24.813 20.187-45 45-45s45 20.187 45 45-20.187 45-45 45-45-20.187-45-45zm41.465 152.028c-2.929 2.929-6.768 4.394-10.606 4.394s-7.678-1.465-10.606-4.394c-5.858-5.857-5.858-15.355 0-21.213l155.564-155.564c5.857-5.857 15.355-5.857 21.213 0s5.858 15.355 0 21.213zm130.815 20.251c-24.813 0-45-20.187-45-45s20.187-45 45-45 45 20.187 45 45-20.187 45-45 45z"/></svg>