<?xml version="1.0" encoding="iso-8859-1"?>
<!-- Generator: Adobe Illustrator 19.0.0, SVG Export Plug-In . SVG Version: 6.00 Build 0)  -->
<svg version="1.1" id="Capa_1" xmlns="http://www.w3.org/2000/svg" xmlns:xlink="http://www.w3.org/1999/xlink" x="0px" y="0px"
	 viewBox="0 0 383.9 383.9" style="enable-background:new 0 0 383.9 383.9;" xml:space="preserve">
<g>
	<g>
		<path d="M344.1,49.95H320v-19c0-5.5-4.5-10-10-10s-10,4.5-10,10v19h-98v-19c0-5.5-4.5-10-10-10s-10,4.5-10,10v19H83v-19
			c0-5.5-4.5-10-10-10s-10,4.5-10,10v19H39.9c-22,0-39.9,18.5-39.9,40.5v232.5c0,22.1,17.8,40,39.9,40H344
			c22.1,0,39.9-17.9,39.9-39.9V90.45C384,68.45,366.1,49.95,344.1,49.95z M95.5,291.95H78c-5.5,0-10-4.5-10-10s4.5-10,10-10h17.6
			c5.5,0,9.9,4.5,9.9,10S101,291.95,95.5,291.95z M95.5,223.95H78c-5.5,0-10-4.5-10-10s4.5-10,10-10h17.6c5.5,0,9.9,4.5,9.9,10
			S101,223.95,95.5,223.95z M165.7,291.95h-17.5c-5.5,0-10-4.5-10-10s4.5-10,10-10h17.5c5.5,0,10,4.5,10,10
			S171.2,291.95,165.7,291.95z M165.7,223.95h-17.5c-5.5,0-10-4.5-10-10s4.5-10,10-10h17.5c5.5,0,10,4.5,10,10
			S171.2,223.95,165.7,223.95z M165.7,154.95h-17.5c-5.5,0-10-4.5-10-10s4.5-10,10-10h17.5c5.5,0,10,4.5,10,10
			S171.2,154.95,165.7,154.95z M235.3,291.95h-17.5c-5.5,0-10-4.5-10-10s4.5-10,10-10h17.5c5.6,0,10,4.5,10,10
			S240.8,291.95,235.3,291.95z M235.3,223.95h-17.5c-5.5,0-10-4.5-10-10s4.5-10,10-10h17.5c5.6,0,10,4.5,10,10
			S240.8,223.95,235.3,223.95z M235.3,154.95h-17.5c-5.5,0-10-4.5-10-10s4.5-10,10-10h17.5c5.6,0,10,4.5,10,10
			S240.8,154.95,235.3,154.95z M305.5,223.95H288c-5.5,0-10-4.5-10-10s4.5-10,10-10h17.5c5.5,0,10,4.5,10,10
			S311,223.95,305.5,223.95z M305.5,154.95H288c-5.5,0-10-4.5-10-10s4.5-10,10-10h17.5c5.5,0,10,4.5,10,10S311,154.95,305.5,154.95z
			"/>
	</g>
</g>
<g>
</g>
<g>
</g>
<g>
</g>
<g>
</g>
<g>
</g>
<g>
</g>
<g>
</g>
<g>
</g>
<g>
</g>
<g>
</g>
<g>
</g>
<g>
</g>
<g>
</g>
<g>
</g>
<g>
</g>
</svg>
