<?xml version="1.0"?>
<svg xmlns="http://www.w3.org/2000/svg" id="Solid" viewBox="0 0 512 512" width="512" height="512"><path d="M158.08,383.272a117.076,117.076,0,0,1,34.245-74.91l13.149-13.15A63.661,63.661,0,0,1,192.518,264H173.95A102.065,102.065,0,0,0,72,365.95V384h74.05A103.186,103.186,0,0,0,158.08,383.272Z"/><path d="M112.551,157.191C112.2,153.512,112,149.8,112,146.05V128H72v18.05a102.555,102.555,0,0,0,1.982,20.023A116.825,116.825,0,0,1,112.551,157.191Z"/><path d="M97.491,276.215a117.423,117.423,0,0,1,73.231-28.169,118.753,118.753,0,0,1-55.537-74.959,100.823,100.823,0,0,0-67.621,29.721L35.313,215.059,88.505,268.25A103.321,103.321,0,0,0,97.491,276.215Z"/><path d="M248,319.482a63.672,63.672,0,0,1-31.213-12.956l-13.149,13.149a101.951,101.951,0,0,0,0,144.179c.025.024.049.049.073.073l12.378,12.7L268.78,424.24a103.31,103.31,0,0,0,8.012-9.05A117.449,117.449,0,0,1,248,338.05Z"/><path d="M146.05,400H128v40h18.05a102.4,102.4,0,0,0,21.027-2.188,117.311,117.311,0,0,1-9.05-38.422A119.388,119.388,0,0,1,146.05,400Z"/><path d="M414.509,235.785a117.419,117.419,0,0,1-73.231,28.169,118.755,118.755,0,0,1,55.537,74.959,100.866,100.866,0,0,0,67.621-29.721l12.251-12.251L423.5,243.75A103.193,103.193,0,0,0,414.509,235.785Z"/><path d="M318.291,270.638A64.139,64.139,0,0,1,264,319.482V338.05A102.065,102.065,0,0,0,365.95,440H384V365.95A102.345,102.345,0,0,0,318.291,270.638Z"/><path d="M399.449,354.8c.352,3.681.551,7.4.551,11.147V384h40V365.95a102.639,102.639,0,0,0-1.981-20.023A116.83,116.83,0,0,1,399.449,354.8Z"/><path d="M365.95,112H384V72H365.95a102.4,102.4,0,0,0-21.027,2.188,117.311,117.311,0,0,1,9.05,38.422A119.388,119.388,0,0,1,365.95,112Z"/><path d="M264,192.518a63.672,63.672,0,0,1,31.213,12.956l13.149-13.149a102.066,102.066,0,0,0,0-144.179c-.025-.024-.049-.049-.073-.073l-12.378-12.7L243.22,87.76A102.9,102.9,0,0,0,235.2,96.8,117.453,117.453,0,0,1,264,173.95Z"/><circle cx="256" cy="256" r="48"/><path d="M353.92,128.727a117.076,117.076,0,0,1-34.245,74.911l-13.149,13.15A63.661,63.661,0,0,1,319.482,248H338.05A102.065,102.065,0,0,0,440,146.05V128H365.95A103.4,103.4,0,0,0,353.92,128.727Z"/><path d="M193.709,241.362A64.139,64.139,0,0,1,248,192.518V173.95A102.065,102.065,0,0,0,146.05,72H128v74.05A102.343,102.343,0,0,0,193.709,241.362Z"/></svg>
