<?xml version="1.0" encoding="iso-8859-1"?>
<!-- Generator: Adobe Illustrator 16.0.0, SVG Export Plug-In . SVG Version: 6.00 Build 0)  -->
<!DOCTYPE svg PUBLIC "-//W3C//DTD SVG 1.1//EN" "http://www.w3.org/Graphics/SVG/1.1/DTD/svg11.dtd">
<svg version="1.1" id="Capa_1" xmlns="http://www.w3.org/2000/svg" xmlns:xlink="http://www.w3.org/1999/xlink" x="0px" y="0px"
	 width="470.94px" height="470.94px" viewBox="0 0 470.94 470.94" style="enable-background:new 0 0 470.94 470.94;"
	 xml:space="preserve">
<g>
	<g id="Layer_2_27_">
		<g>
			<path d="M235.467,0C105.632,0,0,105.634,0,235.471C0,365.311,105.632,470.94,235.467,470.94
				c129.851,0,235.474-105.629,235.474-235.469C470.939,105.634,365.316,0,235.467,0z M235.467,416.249
				c-99.676,0-180.779-81.098-180.779-180.778c0-99.684,81.104-180.782,180.779-180.782c99.689,0,180.783,81.098,180.783,180.782
				C416.25,335.151,335.156,416.249,235.467,416.249z"/>
			<path d="M110.139,218.374H92.663c-9.431,0-17.091,7.658-17.091,17.098c0,9.438,7.66,17.088,17.091,17.088h17.476
				c9.442,0,17.093-7.65,17.093-17.088C127.232,226.031,119.581,218.374,110.139,218.374z"/>
			<path d="M235.467,75.581c-0.127,0-0.264,0.015-0.389,0.015v319.75c0.125,0,0.262,0.01,0.389,0.01
				c88.158,0,159.892-71.727,159.892-159.887C395.357,147.307,323.625,75.581,235.467,75.581z"/>
		</g>
	</g>
</g>
<g>
</g>
<g>
</g>
<g>
</g>
<g>
</g>
<g>
</g>
<g>
</g>
<g>
</g>
<g>
</g>
<g>
</g>
<g>
</g>
<g>
</g>
<g>
</g>
<g>
</g>
<g>
</g>
<g>
</g>
</svg>
