<?xml version="1.0" encoding="iso-8859-1"?>
<!-- Generator: Adobe Illustrator 19.0.0, SVG Export Plug-In . SVG Version: 6.00 Build 0)  -->
<svg version="1.1" id="Capa_1" xmlns="http://www.w3.org/2000/svg" xmlns:xlink="http://www.w3.org/1999/xlink" x="0px" y="0px"
	 viewBox="0 0 442.4 442.4" style="enable-background:new 0 0 442.4 442.4;" xml:space="preserve">
<g>
	<g>
		<path d="M388.4,38.376H53.8c-28.7,0-53.8,22.5-53.8,51.2v194.4c0.8,29.1,24.7,52.3,53.8,52.2H151l-39.2,52.2
			c-2.6,2.9-3,7.1-1,10.4c1.7,3.5,5.5,5.6,9.4,5.2h209c3.7,0.2,7.2-1.9,8.9-5.2c2.1-3.5,1.6-7.9-1-11l-39.2-51.7h90.7
			c29.1,0,53-23.1,53.8-52.2v-194.3C442.3,60.876,417.2,38.376,388.4,38.376z M307.7,383.276H141l36-47h94.6L307.7,383.276z
			 M423.1,283.976c0,17.3-14,31.3-31.3,31.3H52.2c-17.3,0-31.3-14-31.3-31.3v-193.3c0-17.3,14-31.3,31.3-31.3h339.6
			c17.3,0,31.3,14,31.3,31.3V283.976z"/>
	</g>
</g>
<g>
</g>
<g>
</g>
<g>
</g>
<g>
</g>
<g>
</g>
<g>
</g>
<g>
</g>
<g>
</g>
<g>
</g>
<g>
</g>
<g>
</g>
<g>
</g>
<g>
</g>
<g>
</g>
<g>
</g>
</svg>
