<svg id="Capa_1" enable-background="new 0 0 512 512" height="512" viewBox="0 0 512 512" width="512" xmlns="http://www.w3.org/2000/svg"><g><circle cx="256" cy="256" r="19.429"/><path d="m381.528 271v-30h30.895c-3.053-32.089-15.788-61.398-35.255-84.955l-21.799 21.8-21.213-21.213 21.8-21.8c-23.558-19.467-52.867-32.202-84.956-35.255v30.896h-30v-30.896c-32.089 3.053-61.398 15.788-84.954 35.255l21.8 21.8-21.213 21.213-21.799-21.8c-19.469 23.557-32.204 52.866-35.257 84.955h30.895v30h-30.888c2.474 26.35 11.442 51.341 26.398 73.285h260.035c14.956-21.944 23.924-46.936 26.398-73.285zm-125.528 34.429c-27.255 0-49.429-22.174-49.429-49.429 0-22.027 14.486-40.728 34.429-47.095v-37.872h30v37.872c19.943 6.367 34.429 25.068 34.429 47.095 0 27.255-22.174 49.429-49.429 49.429z"/><path d="m437.02 74.98c-48.353-48.351-112.64-74.98-181.02-74.98s-132.667 26.629-181.02 74.98c-48.351 48.353-74.98 112.64-74.98 181.02s26.629 132.667 74.98 181.02c48.353 48.351 112.64 74.98 181.02 74.98s132.667-26.629 181.02-74.98c48.351-48.353 74.98-112.64 74.98-181.02s-26.629-132.667-74.98-181.02zm-200.449 368.163h-30v-30h30zm68.858 0h-30v-30h30zm100.286-74.849-4.5 5.991h-290.429l-4.5-5.991c-24.486-32.596-37.429-71.427-37.429-112.294 0-103.19 83.952-187.143 187.143-187.143s187.143 83.953 187.143 187.143c0 40.867-12.943 79.698-37.428 112.294z"/></g></svg>