<?xml version="1.0" encoding="iso-8859-1"?>
<!-- Generator: Adobe Illustrator 19.0.0, SVG Export Plug-In . SVG Version: 6.00 Build 0)  -->
<svg version="1.1" id="Capa_1" xmlns="http://www.w3.org/2000/svg" xmlns:xlink="http://www.w3.org/1999/xlink" x="0px" y="0px"
	 viewBox="0 0 512 512" style="enable-background:new 0 0 512 512;" xml:space="preserve">
<g>
	<g>
		<g>
			<circle cx="256" cy="108" r="20"/>
			<path d="M492,470H20c-11.046,0-20,8.954-20,20c0,11.046,8.954,20,20,20h472c11.046,0,20-8.954,20-20
				C512,478.954,503.046,470,492,470z"/>
			<path d="M512,127c0-7.907-4.658-15.071-11.885-18.28l-236.5-105c-5.179-2.3-11.087-2.293-16.26,0.013l-235.5,105
				C4.645,111.948,0,119.105,0,127v53c0,0.169,0.021,0.332,0.025,0.5C0.021,180.668,0,180.831,0,181c0,11.046,8.954,20,20,20
				c11.743,0,17,10.045,17,20v186.516c0,0.419,0.038,0.829,0.063,1.242C37.037,409.171,37,409.581,37,410c0,11.046,8.954,20,20,20
				h400c11.046,0,20-8.954,20-20c0-11.046-8.954-20-20-20h-60V221c0-11.028,8.972-20,20-20s20,8.972,20,20v88.517
				c0,11.046,8.954,20,20,20c11.046,0,20-8.954,20-20V221c0-4.692,1.082-20,15-20c11.046,0,20-8.954,20-20
				c0-0.169-0.021-0.332-0.025-0.5c0.004-0.168,0.025-0.331,0.025-0.5V127z M117,390H77V221c0-11.028,8.972-20,20-20s20,8.972,20,20
				V390z M197,390h-40V221c0-11.028,8.972-20,20-20s20,8.972,20,20V390z M277,390h-40V221c0-11.028,8.972-20,20-20s20,8.972,20,20
				V390z M357,390h-40V221c0-11.028,8.972-20,20-20s20,8.972,20,20V390z M472,160H40v-20.019L255.518,43.89L472,140.003V160z"/>
		</g>
	</g>
</g>
<g>
</g>
<g>
</g>
<g>
</g>
<g>
</g>
<g>
</g>
<g>
</g>
<g>
</g>
<g>
</g>
<g>
</g>
<g>
</g>
<g>
</g>
<g>
</g>
<g>
</g>
<g>
</g>
<g>
</g>
</svg>
