<svg height="512pt" viewBox="0 -45 512 511" width="512pt" xmlns="http://www.w3.org/2000/svg"><path d="m407 .5h-302c-57.898438 0-105 47.101562-105 105v162.171875c0 46.199219 30.332031 86.4375 74.285156 99.316406l50.710938 50.714844c2.816406 2.8125 6.628906 4.394531 10.609375 4.394531 3.976562 0 7.792969-1.582031 10.605469-4.394531l46.519531-46.523437h214.269531c57.898438 0 105-47.101563 105-105v-160.679688c0-57.898438-47.101562-105-105-105zm75 265.679688c0 41.355468-33.644531 75-75 75h-220.480469c-3.976562 0-7.792969 1.582031-10.605469 4.394531l-40.308593 40.308593-42.929688-42.929687c-1.925781-1.925781-4.339843-3.292969-6.984375-3.949219-32.789062-8.160156-55.691406-37.492187-55.691406-71.332031v-162.171875c0-41.355469 33.644531-75 75-75h302c41.355469 0 75 33.644531 75 75zm0 0"/><path d="m351.242188 144.328125h-190.484376c-8.285156 0-15 6.71875-15 15 0 8.285156 6.714844 15 15 15h190.484376c8.285156 0 15-6.714844 15-15 0-8.28125-6.714844-15-15-15zm0 0"/><path d="m351.242188 197.351562h-190.484376c-8.285156 0-15 6.714844-15 15 0 8.285157 6.714844 15 15 15h190.484376c8.285156 0 15-6.714843 15-15 0-8.285156-6.714844-15-15-15zm0 0"/></svg>