<?xml version="1.0" encoding="iso-8859-1"?>
<!-- Generator: Adobe Illustrator 19.0.0, SVG Export Plug-In . SVG Version: 6.00 Build 0)  -->
<svg version="1.1" id="Layer_1" xmlns="http://www.w3.org/2000/svg" xmlns:xlink="http://www.w3.org/1999/xlink" x="0px" y="0px"
	 viewBox="0 0 512 512" style="enable-background:new 0 0 512 512;" xml:space="preserve">
<g>
	<g>
		<path d="M256,0C114.509,0,0,114.497,0,256c0,141.491,114.497,256,256,256c141.49,0,256-114.497,256-256
			C512,114.51,397.503,0,256,0z M364.733,264.811L269.457,386.94c-6.833,8.759-20.091,8.745-26.913,0l-95.278-122.129
			c-8.711-11.166-0.757-27.565,13.457-27.565h47.919V135.558c0-9.425,7.641-17.067,17.067-17.067h60.584
			c9.425,0,17.067,7.641,17.067,17.067v101.688h47.917C365.492,237.246,373.443,253.646,364.733,264.811z"/>
	</g>
</g>
<g>
</g>
<g>
</g>
<g>
</g>
<g>
</g>
<g>
</g>
<g>
</g>
<g>
</g>
<g>
</g>
<g>
</g>
<g>
</g>
<g>
</g>
<g>
</g>
<g>
</g>
<g>
</g>
<g>
</g>
</svg>
