<?xml version="1.0" encoding="iso-8859-1"?>
<!-- Generator: Adobe Illustrator 19.0.0, SVG Export Plug-In . SVG Version: 6.00 Build 0)  -->
<svg version="1.1" id="Capa_1" xmlns="http://www.w3.org/2000/svg" xmlns:xlink="http://www.w3.org/1999/xlink" x="0px" y="0px"
	 viewBox="0 0 512 512" style="enable-background:new 0 0 512 512;" xml:space="preserve">
<g>
	<g>
		<path d="M462,112h-48c-27.57,0-50,22.43-50,50v300c0,27.57,22.43,50,50,50h48c27.57,0,50-22.43,50-50V162
			C512,134.43,489.57,112,462,112z M472,462c0,5.514-4.486,10-10,10h-48c-5.514,0-10-4.486-10-10V162c0-5.514,4.486-10,10-10h48
			c5.514,0,10,4.486,10,10V462z"/>
	</g>
</g>
<g>
	<g>
		<path d="M98,264H50c-27.57,0-50,22.43-50,50v148c0,27.57,22.43,50,50,50h48c27.57,0,50-22.43,50-50V314
			C148,286.43,125.57,264,98,264z M108,462c0,5.514-4.486,10-10,10H50c-5.514,0-10-4.486-10-10V314c0-5.514,4.486-10,10-10h48
			c5.514,0,10,4.486,10,10V462z"/>
	</g>
</g>
<g>
	<g>
		<path d="M280,0h-48c-27.57,0-50,22.43-50,50v412c0,27.57,22.43,50,50,50h48c27.57,0,50-22.43,50-50V50C330,22.43,307.57,0,280,0z
			 M290,462c0,5.514-4.486,10-10,10h-48c-5.514,0-10-4.486-10-10V50c0-5.514,4.486-10,10-10h48c5.514,0,10,4.486,10,10V462z"/>
	</g>
</g>
<g>
</g>
<g>
</g>
<g>
</g>
<g>
</g>
<g>
</g>
<g>
</g>
<g>
</g>
<g>
</g>
<g>
</g>
<g>
</g>
<g>
</g>
<g>
</g>
<g>
</g>
<g>
</g>
<g>
</g>
</svg>
