<?xml version="1.0" encoding="iso-8859-1"?>
<!-- Generator: Adobe Illustrator 19.0.0, SVG Export Plug-In . SVG Version: 6.00 Build 0)  -->
<svg version="1.1" id="Capa_1" xmlns="http://www.w3.org/2000/svg" xmlns:xlink="http://www.w3.org/1999/xlink" x="0px" y="0px"
	 viewBox="0 0 512 512" style="enable-background:new 0 0 512 512;" xml:space="preserve">
<g>
	<g>
		<path d="M256,176c-44.113,0-80,35.888-80,80s35.888,80,80,80s80-35.888,80-80S300.113,176,256,176z M256,296
			c-22.056,0-40-17.944-40-40c0-22.056,17.944-40,40-40c22.056,0,40,17.944,40,40C296,278.056,278.056,296,256,296z"/>
	</g>
</g>
<g>
	<g>
		<path d="M502.164,315.637l-51.788-39.683c1.456-13.725,1.367-27.02,0-39.907l51.788-39.683c8.029-6.152,10.201-17.33,5.059-26.041
			l-50.152-84.978c-4.996-8.466-15.405-12.046-24.553-8.443l-61.445,24.2c-11.222-8.031-23.233-14.836-35.904-20.341l-9.224-63.63
			C324.519,7.296,316.089,0,306.152,0H205.848c-9.937,0-18.367,7.296-19.792,17.132l-9.224,63.63
			c-12.671,5.506-24.682,12.31-35.904,20.341l-61.445-24.2c-9.15-3.604-19.557-0.023-24.553,8.443L4.777,170.323
			c-5.141,8.711-2.969,19.889,5.059,26.041l51.789,39.682c-1.456,13.725-1.367,27.02,0,39.907L9.837,315.636
			c-8.029,6.152-10.201,17.33-5.059,26.041l50.151,84.978c4.996,8.466,15.404,12.046,24.553,8.443l61.446-24.199
			c11.22,8.029,23.232,14.835,35.903,20.34l9.224,63.63c1.426,9.835,9.856,17.131,19.793,17.131h100.304
			c9.937,0,18.367-7.296,19.793-17.13l9.224-63.63c12.671-5.505,24.683-12.31,35.903-20.34l61.446,24.199
			c9.149,3.603,19.557,0.022,24.553-8.443l50.152-84.978C512.364,332.967,510.192,321.789,502.164,315.637z M431.297,391.626
			l-56.047-22.073c-6.716-2.643-14.328-1.467-19.93,3.077c-13.523,10.973-28.702,19.557-45.114,25.515
			c-6.928,2.515-11.91,8.636-12.968,15.93L288.842,472h-65.685l-8.395-57.925c-1.058-7.294-6.04-13.415-12.968-15.93
			c-16.412-5.959-31.591-14.543-45.114-25.515c-5.602-4.544-13.218-5.72-19.93-3.077l-56.047,22.073l-32.471-55.019l46.96-35.984
			c5.902-4.523,8.809-11.946,7.545-19.274c-2.944-17.075-2.847-34.187,0-50.699c1.264-7.328-1.643-14.752-7.545-19.274
			l-46.96-35.984l32.471-55.019l56.047,22.073c6.715,2.645,14.328,1.467,19.93-3.077c13.524-10.972,28.703-19.556,45.114-25.514
			c6.928-2.515,11.91-8.636,12.968-15.93L223.158,40h65.685l8.395,57.925c1.058,7.294,6.04,13.415,12.968,15.93
			c16.411,5.958,31.59,14.542,45.114,25.514c5.602,4.545,13.217,5.721,19.93,3.077l56.047-22.073l32.47,55.019l-46.96,35.984
			c-5.902,4.523-8.809,11.946-7.545,19.274c2.944,17.075,2.847,34.187,0,50.699c-1.264,7.328,1.643,14.752,7.545,19.274
			l46.96,35.984L431.297,391.626z"/>
	</g>
</g>
<g>
</g>
<g>
</g>
<g>
</g>
<g>
</g>
<g>
</g>
<g>
</g>
<g>
</g>
<g>
</g>
<g>
</g>
<g>
</g>
<g>
</g>
<g>
</g>
<g>
</g>
<g>
</g>
<g>
</g>
</svg>
